Anvers.glyphspackage
{
glyphname = dollar;
layers = (
{
layerId = m01;
shapes = (
{
closed = 1;
nodes = (
(64,57,l),
(126,12,o),
(201,-9,o),
(274,-9,cs),
(399,-9,o),
(533,75,o),
(533,215,cs),
(533,483,o),
(156,398,o),
(156,588,cs),
(156,656,o),
(220,707,o),
(288,707,cs),
(348,707,o),
(414,669,o),
(455,565,c),
(465,557,o),
(499,564,o),
(497,579,cs),
(480,724,l),
(430,754,o),
(373,770,o),
(317,770,cs),
(186,770,o),
(63,680,o),
(63,571,cs),
(63,306,o),
(440,423,o),
(440,196,cs),
(440,110,o),
(377,53,o),
(294,53,cs),
(222,53,o),
(141,101,o),
(97,235,cs),
(93,248,o),
(53,236,o),
(50,227,c)
);
},
{
closed = 1;
nodes = (
(240,-130,l),
(240,-145,o),
(300,-145,o),
(300,-130,c),
(340,885,l),
(340,900,o),
(280,900,o),
(280,885,c)
);
}
);
userData = {
com.schriftgestaltung.Glyphs.layer.corners = (
{
name = _segment.bulge;
origin = _corner00;
type = Segment;
},
{
name = _segment.bulge;
origin = _corner01;
type = Segment;
}
);
};
width = 583;
},
{
background = {
shapes = (
{
closed = 1;
nodes = (
(64,57,l),
(126,12,o),
(201,-9,o),
(274,-9,cs),
(399,-9,o),
(533,75,o),
(533,215,cs),
(533,483,o),
(156,398,o),
(156,588,cs),
(156,656,o),
(220,707,o),
(288,707,cs),
(348,707,o),
(414,669,o),
(455,565,c),
(465,557,o),
(499,564,o),
(497,579,cs),
(480,724,l),
(430,754,o),
(373,770,o),
(317,770,cs),
(186,770,o),
(63,680,o),
(63,571,cs),
(63,306,o),
(440,423,o),
(440,196,cs),
(440,110,o),
(377,53,o),
(294,53,cs),
(222,53,o),
(141,101,o),
(97,235,cs),
(93,248,o),
(53,236,o),
(50,227,c)
);
},
{
closed = 1;
nodes = (
(240,-130,l),
(300,-130,l),
(340,885,l),
(280,885,l)
);
}
);
};
layerId = m002;
shapes = (
{
closed = 1;
nodes = (
(65,56,l),
(120,13,o),
(194,-8,o),
(268,-8,cs),
(415,-8,o),
(563,75,o),
(563,225,cs),
(563,479,o),
(171,434,o),
(171,588,cs),
(171,659,o),
(233,693,o),
(294,693,cs),
(349,693,o),
(412,652,o),
(462,568,cs),
(471,553,o),
(519,563,o),
(517,581,cs),
(499,726,l),
(449,752,o),
(377,769,o),
(315,769,cs),
(183,769,o),
(53,690,o),
(53,541,cs),
(53,299,o),
(425,366,o),
(425,186,cs),
(425,108,o),
(361,71,o),
(292,71,cs),
(233,71,o),
(162,114,o),
(108,237,cs),
(102,251,o),
(49,238,o),
(50,225,cs)
);
},
{
closed = 1;
nodes = (
(220,-130,l),
(219,-145,o),
(299,-150,o),
(300,-135,c),
(360,885,l),
(361,900,o),
(281,905,o),
(280,890,c)
);
}
);
userData = {
com.schriftgestaltung.Glyphs.layer.corners = (
{
name = _segment.bulge;
origin = _corner00;
type = Segment;
},
{
name = _segment.bulge;
origin = _corner01;
type = Segment;
}
);
};
width = 583;
}
);
unicode = 36;
}
{
glyphname = percent;
layers = (
{
layerId = m01;
shapes = (
{
closed = 1;
nodes = (
(850,730,l),
(860,741,o),
(805,791,o),
(795,780,c),
(95,30,l),
(85,19,o),
(140,-31,o),
(150,-20,c)
);
},
{
closed = 1;
nodes = (
(317,380,o),
(413,460,o),
(421,580,cs),
(429,700,o),
(345,780,o),
(234,780,cs),
(125,780,o),
(29,700,o),
(21,580,cs),
(13,460,o),
(97,380,o),
(208,380,cs)
);
},
{
closed = 1;
nodes = (
(161,455,o),
(106,501,o),
(101,580,cs),
(96,659,o),
(144,705,o),
(212,705,cs),
(281,705,o),
(336,659,o),
(341,580,cs),
(346,501,o),
(298,455,o),
(230,455,cs)
);
},
{
closed = 1;
nodes = (
(822,-20,o),
(918,60,o),
(926,180,cs),
(934,300,o),
(850,380,o),
(739,380,cs),
(630,380,o),
(534,300,o),
(526,180,cs),
(518,60,o),
(602,-20,o),
(713,-20,cs)
);
},
{
closed = 1;
nodes = (
(666,55,o),
(611,101,o),
(606,180,cs),
(601,259,o),
(649,305,o),
(717,305,cs),
(786,305,o),
(841,259,o),
(846,180,cs),
(851,101,o),
(803,55,o),
(735,55,cs)
);
}
);
userData = {
com.schriftgestaltung.Glyphs.layer.corners = (
{
name = _segment.bulge;
origin = _corner00;
type = Segment;
},
{
name = _segment.bulge;
origin = _corner01;
type = Segment;
}
);
};
width = 947;
},
{
layerId = m002;
shapes = (
{
closed = 1;
nodes = (
(865,715,l),
(875,726,o),
(790,806,o),
(780,795,c),
(80,45,l),
(70,34,o),
(155,-46,o),
(165,-35,c)
);
},
{
closed = 1;
nodes = (
(297,380,o),
(393,460,o),
(401,580,cs),
(409,700,o),
(325,780,o),
(214,780,cs),
(105,780,o),
(9,700,o),
(1,580,cs),
(-7,460,o),
(77,380,o),
(188,380,cs)
);
},
{
closed = 1;
nodes = (
(158,490,o),
(118,523,o),
(115,580,cs),
(111,637,o),
(146,670,o),
(195,670,cs),
(244,670,o),
(284,637,o),
(287,580,cs),
(291,523,o),
(256,490,o),
(207,490,cs)
);
},
{
closed = 1;
nodes = (
(842,-20,o),
(938,60,o),
(946,180,cs),
(954,300,o),
(870,380,o),
(759,380,cs),
(650,380,o),
(554,300,o),
(546,180,cs),
(538,60,o),
(622,-20,o),
(733,-20,cs)
);
},
{
closed = 1;
nodes = (
(703,90,o),
(663,123,o),
(660,180,cs),
(656,237,o),
(691,270,o),
(740,270,cs),
(789,270,o),
(829,237,o),
(832,180,cs),
(836,123,o),
(801,90,o),
(752,90,cs)
);
}
);
userData = {
com.schriftgestaltung.Glyphs.layer.corners = (
{
name = _segment.bulge;
origin = _corner00;
type = Segment;
},
{
name = _segment.bulge;
origin = _corner01;
type = Segment;
}
);
};
width = 947;
}
);
unicode = 37;
}
{
glyphname = A;
layers = (
{
anchors = (
{
name = bottom;
pos = (384,0);
},
{
name = ogonek;
pos = (760,-1);
},
{
name = top;
pos = (384,760);
}
);
background = {
shapes = (
{
closed = 1;
nodes = (
(319,765,l),
(349,690,l),
(614,0,l,{
name = _corner04;
}),
(724,0,l,{
name = _corner05;
}),
(406,800,l,{
name = _corner06;
})
);
},
{
closed = 1;
nodes = (
(409,770,l),
(349,760,l),
(34,0,l,{
name = _corner07;
}),
(119,0,l,{
name = _corner08;
})
);
},
{
closed = 1;
nodes = (
(184,265,l),
(574,265,l),
(574,320,l),
(184,320,l)
);
}
);
};
layerId = m01;
shapes = (
{
closed = 1;
nodes = (
(359,760,l),
(328,741,l),
(322,725,l),
(329,700,l),
(349,680,l),
(563,131,l),
(589,64,o),
(591,69,o),
(528,31,c),
(521,26,o),
(525,-1,o),
(534,-1,c),
(590,-1,o),
(604,0,o),
(621,0,c),
(685,0,l),
(700,0,o),
(712,-1,o),
(760,-1,c),
(768,-1,o),
(772,26,o),
(765,31,c),
(712,69,o),
(698,64,o),
(671,131,c),
(406,790,l),
(395,793,l)
);
},
{
closed = 1;
nodes = (
(409,760,l),
(349,750,l),
(89,130,l),
(61,64,o),
(47,69,o),
(-6,31,c),
(-13,26,o),
(-9,-1,o),
(-2,-1,c),
(46,-1,o),
(58,0,o),
(73,0,c),
(104,0,l),
(127,0,o),
(145,-1,o),
(217,-1,c),
(228,-1,o),
(234,26,o),
(224,31,c),
(144,69,o),
(144,65,o),
(169,131,c)
);
},
{
closed = 1;
nodes = (
(184,265,l),
(574,265,l),
(574,320,l),
(184,320,l)
);
}
);
userData = {
com.schriftgestaltung.Glyphs.layer.corners = (
{
name = _corner.serif;
options = 1;
origin = _corner00;
scale = "{0.9, -1.1}";
type = Corner;
},
{
name = _corner.serif;
origin = _corner01;
scale = "{0.7, 1.1}";
type = Corner;
},
{
name = _corner.serif;
options = 1;
origin = _corner02;
scale = "{0.6, -1.1}";
type = Corner;
},
{
name = _corner.serif;
origin = _corner03;
scale = "{0.6, 1.1}";
type = Corner;
},
{
name = _corner.mitre;
origin = _corner04;
type = Corner;
},
{
name = _corner.mitre;
origin = _corner05;
type = Corner;
}
);
};
width = 759;
},
{
anchors = (
{
name = bottom;
pos = (375,0);
},
{
name = ogonek;
pos = (675,10);
},
{
name = top;
pos = (375,760);
}
);
background = {
shapes = (
{
closed = 1;
nodes = (
(350,760,l),
(310,735,l,{
name = _corner09;
}),
(320,700,l),
(340,680,l),
(605,0,l,{
name = _corner10;
}),
(715,0,l,{
name = _corner11;
}),
(393,800,l,{
name = _corner12;
})
);
},
{
closed = 1;
nodes = (
(400,760,l),
(340,750,l),
(25,0,l,{
name = _corner13;
}),
(110,0,l,{
name = _corner14;
})
);
},
{
closed = 1;
nodes = (
(175,265,l),
(565,265,l),
(565,320,l),
(175,320,l)
);
}
);
};
layerId = m002;
shapes = (
{
closed = 1;
nodes = (
(350,760,l),
(268,696,l),
(261,666,l),
(293,605,l),
(306,599,l),
(484,153,l),
(511,86,o),
(509,86,o),
(454,48,c),
(446,43,o),
(454,-1,o),
(463,-1,c),
(512,-1,o),
(526,0,o),
(543,0,c),
(667,0,l),
(682,0,o),
(694,-1,o),
(736,-1,c),
(744,-1,o),
(751,43,o),
(744,48,c),
(697,86,o),
(680,86,o),
(654,153,c),
(401,780,l),
(378,786,l)
);
},
{
closed = 1;
nodes = (
(400,700,l),
(330,740,l),
(88,152,l),
(61,86,o),
(44,86,o),
(-4,48,c),
(-10,43,o),
(-4,-1,o),
(4,-1,c),
(46,-1,o),
(58,0,o),
(73,0,c),
(115,0,l),
(137,0,o),
(155,-1,o),
(218,-1,c),
(230,-1,o),
(240,43,o),
(230,48,c),
(159,86,o),
(155,86,o),
(181,153,c)
);
},
{
closed = 1;
nodes = (
(165,195,l),
(555,195,l),
(555,270,l),
(165,270,l)
);
}
);
userData = {
com.schriftgestaltung.Glyphs.layer.corners = (
{
name = _corner.serif;
options = 1;
origin = _corner00;
scale = "{0.9, -1.1}";
type = Corner;
},
{
name = _corner.serif;
origin = _corner01;
scale = "{0.7, 1.1}";
type = Corner;
},
{
name = _corner.serif;
options = 1;
origin = _corner02;
scale = "{0.6, -1.1}";
type = Corner;
},
{
name = _corner.serif;
origin = _corner03;
scale = "{0.6, 1.1}";
type = Corner;
},
{
name = _corner.mitre;
origin = _corner04;
type = Corner;
},
{
name = _corner.mitre;
origin = _corner05;
type = Corner;
}
);
};
width = 750;
}
);
unicode = 65;
}
{
glyphname = D;
layers = (
{
anchors = (
{
name = bottom;
pos = (444,0);
},
{
name = center;
pos = (444,380);
},
{
name = top;
pos = (314,760);
}
);
layerId = m01;
shapes = (
{
closed = 1;
nodes = (
(625,0,o),
(804,163,o),
(804,395,cs),
(804,613,o),
(633,760,o),
(408,760,cs),
(181,760,l),
(161,760,o),
(145,761,o),
(81,761,c),
(71,761,o),
(66,734,o),
(75,729,c),
(146,691,o),
(153,694,o),
(153,623,c),
(153,138,l),
(153,66,o),
(146,69,o),
(75,31,c),
(66,26,o),
(71,-1,o),
(81,-1,c),
(145,-1,o),
(161,0,o),
(181,0,c),
(380,0,ls)
);
},
{
closed = 1;
nodes = (
(253,685,l),
(263,696,l),
(431,718,o),
(697,686,o),
(697,354,cs),
(697,89,o),
(476,33,o),
(263,63,c),
(253,75,l)
);
}
);
userData = {
com.schriftgestaltung.Glyphs.layer.corners = (
{
name = _corner.serif;
origin = _corner00;
scale = "{0.8, 1.1}";
type = Corner;
},
{
name = _corner.serif;
options = 1;
origin = _corner01;
scale = "{0.8, -1.1}";
type = Corner;
},
{
name = _corner.mitre;
origin = _corner02;
type = Corner;
},
{
name = _corner.mitre;
origin = _corner03;
type = Corner;
}
);
};
width = 884;
},
{
anchors = (
{
name = bottom;
pos = (425,0);
},
{
name = center;
pos = (425,380);
},
{
name = top;
pos = (425,760);
}
);
layerId = m002;
shapes = (
{
closed = 1;
nodes = (
(641,0,o),
(820,163,o),
(820,395,cs),
(820,613,o),
(649,760,o),
(394,760,cs),
(137,760,l),
(117,760,o),
(101,761,o),
(45,761,c),
(35,761,o),
(26,717,o),
(35,712,c),
(98,674,o),
(109,672,o),
(109,601,c),
(109,160,l),
(109,88,o),
(98,86,o),
(35,48,c),
(26,43,o),
(35,-1,o),
(45,-1,c),
(101,-1,o),
(117,0,o),
(137,0,c),
(366,0,ls)
);
},
{
closed = 1;
nodes = (
(259,670,l),
(269,682,l),
(408,703,o),
(663,676,o),
(663,364,cs),
(663,91,o),
(416,53,o),
(269,83,c),
(259,95,l)
);
}
);
userData = {
com.schriftgestaltung.Glyphs.layer.corners = (
{
name = _corner.serif;
origin = _corner00;
scale = "{0.8, 1.1}";
type = Corner;
},
{
name = _corner.serif;
options = 1;
origin = _corner01;
scale = "{0.8, -1.1}";
type = Corner;
},
{
name = _corner.mitre;
origin = _corner02;
scale = "{0.5, 0.5}";
type = Corner;
},
{
name = _corner.mitre;
origin = _corner03;
scale = "{0.5, 0.5}";
type = Corner;
}
);
};
width = 850;
}
);
unicode = 68;
}
{
glyphname = F;
layers = (
{
anchors = (
{
name = bottom;
pos = (339,0);
},
{
name = top;
pos = (339,760);
}
);
layerId = m01;
shapes = (
{
closed = 1;
nodes = (
(225,0,l),
(245,0,o),
(261,-1,o),
(325,-1,c),
(335,-1,o),
(340,26,o),
(331,31,c),
(260,69,o),
(253,66,o),
(253,138,c),
(253,355,l),
(397,355,l),
(462,355,o),
(459,349,o),
(494,286,c),
(498,279,o),
(523,283,o),
(523,292,c),
(523,328,o),
(522,362,o),
(522,383,cs),
(522,403,o),
(523,437,o),
(523,473,c),
(523,482,o),
(498,486,o),
(494,479,c),
(459,416,o),
(462,410,o),
(397,410,c),
(253,410,l),
(253,640,ls),
(253,699,o),
(271,704,o),
(398,704,cs),
(540,704,o),
(544,686,o),
(611,576,c),
(617,562,o),
(650,576,o),
(644,590,c),
(619,760,l),
(608,769,l),
(468,760,l),
(181,760,l),
(161,760,o),
(145,761,o),
(81,761,c),
(71,761,o),
(66,734,o),
(75,729,c),
(146,691,o),
(153,694,o),
(153,623,c),
(153,138,l),
(153,66,o),
(146,69,o),
(75,31,c),
(66,26,o),
(71,-1,o),
(81,-1,c),
(145,-1,o),
(161,0,o),
(181,0,c)
);
}
);
userData = {
com.schriftgestaltung.Glyphs.layer.corners = (
{
name = _corner.serif;
origin = _corner00;
scale = "{0.8, 1.1}";
type = Corner;
},
{
name = _corner.serif;
options = 1;
origin = _corner01;
scale = "{0.8, -1.1}";
type = Corner;
},
{
name = _segment.bulge;
origin = _corner02;
type = Segment;
},
{
name = _corner.mitre;
origin = _corner03;
type = Corner;
},
{
name = _corner.serif;
origin = _corner04;
scale = "{0.8, -1.1}";
type = Corner;
}
);
};
width = 665;
},
{
anchors = (
{
name = bottom;
pos = (331,0);
},
{
name = top;
pos = (331,760);
}
);
background = {
shapes = (
{
closed = 1;
nodes = (
(130,760,l,{
name = _corner00;
}),
(130,0,l,{
name = _corner01;
}),
(230,0,l,{
name = _corner02;
}),
(230,640,ls),
(230,699,o),
(248,704,o),
(375,704,cs),
(517,704,o),
(521,686,o),
(588,576,c),
(621,590,l),
(595,770,l,{
name = _corner03;
}),
(445,760,l)
);
},
{
closed = 1;
nodes = (
(209,355,l),
(499,355,l,{
name = _corner04;
}),
(499,410,l,{
name = _corner05;
}),
(209,410,l)
);
}
);
};
layerId = m002;
shapes = (
{
closed = 1;
nodes = (
(245,0,l),
(270,0,o),
(290,-1,o),
(360,-1,c),
(373,-1,o),
(384,39,o),
(373,44,c),
(294,78,o),
(280,80,o),
(280,145,c),
(280,345,l),
(364,345,ls),
(429,345,o),
(451,332,o),
(480,251,cs),
(485,238,o),
(531,251,o),
(530,263,cs),
(525,306,o),
(524,344,o),
(524,380,cs),
(524,416,o),
(525,444,o),
(530,487,cs),
(531,499,o),
(484,508,o),
(480,499,cs),
(451,428,o),
(429,415,o),
(364,415,cs),
(280,415,l),
(280,615,ls),
(280,674,o),
(278,684,o),
(405,684,cs),
(477,684,o),
(536,676,o),
(593,566,c),
(597,551,o),
(655,565,o),
(651,580,c),
(628,750,l),
(605,769,l),
(475,760,l),
(158,760,l),
(138,760,o),
(122,761,o),
(66,761,c),
(56,761,o),
(47,717,o),
(56,712,c),
(119,674,o),
(130,672,o),
(130,601,c),
(130,159,l),
(130,87,o),
(119,85,o),
(56,48,c),
(47,42,o),
(56,-2,o),
(66,-2,c),
(122,-2,o),
(138,-1,o),
(158,-1,c)
);
}
);
userData = {
com.schriftgestaltung.Glyphs.layer.corners = (
{
name = _segment.bulge;
origin = _corner00;
type = Segment;
},
{
name = _corner.mitre;
origin = _corner01;
type = Corner;
},
{
name = _corner.serif;
origin = _corner02;
scale = "{0.8, -1.1}";
type = Corner;
},
{
name = _corner.serif;
options = 1;
origin = _corner03;
scale = "{0.8, 1.1}";
type = Corner;
},
{
name = _corner.serif;
origin = _corner04;
scale = "{1, -1}";
type = Corner;
}
);
};
width = 661;
}
);
unicode = 70;
}
{
glyphname = J;
layers = (
{
anchors = (
{
name = bottom;
pos = (241,0);
},
{
name = top;
pos = (241,760);
}
);
layerId = m01;
shapes = (
{
closed = 1;
nodes = (
(191,125,ls),
(191,3,o),
(164,-44,o),
(72,-142,c),
(63,-152,o),
(88,-181,o),
(102,-173,c),
(248,-67,o),
(291,-32,o),
(291,160,cs),
(291,623,l),
(291,694,o),
(298,691,o),
(369,729,c),
(378,734,o),
(373,761,o),
(363,761,c),
(299,761,o),
(283,760,o),
(263,760,c),
(219,760,l),
(199,760,o),
(183,761,o),
(119,761,c),
(109,761,o),
(104,734,o),
(113,729,c),
(184,691,o),
(191,694,o),
(191,623,c)
);
}
);
userData = {
com.schriftgestaltung.Glyphs.layer.corners = (
{
name = _corner.serif;
origin = _corner00;
scale = "{0.8, 1.1}";
type = Corner;
},
{
name = _corner.serif;
options = 1;
origin = _corner01;
scale = "{0.8, -1.1}";
type = Corner;
}
);
};
width = 444;
},
{
anchors = (
{
name = bottom;
pos = (184,0);
},
{
name = top;
pos = (184,760);
}
);
layerId = m002;
shapes = (
{
closed = 1;
nodes = (
(109,125,ls),
(109,3,o),
(82,-44,o),
(-10,-142,c),
(-19,-152,o),
(16,-201,o),
(30,-193,c),
(176,-87,o),
(259,-32,o),
(259,160,cs),
(259,601,l),
(259,672,o),
(270,674,o),
(333,712,c),
(342,717,o),
(333,761,o),
(323,761,c),
(267,761,o),
(251,760,o),
(231,760,c),
(137,760,l),
(117,760,o),
(101,761,o),
(45,761,c),
(35,761,o),
(26,717,o),
(35,712,c),
(98,674,o),
(109,672,o),
(109,601,c)
);
}
);
userData = {
com.schriftgestaltung.Glyphs.layer.corners = (
{
name = _corner.serif;
origin = _corner00;
scale = "{0.8, 1.1}";
type = Corner;
},
{
name = _corner.serif;
options = 1;
origin = _corner01;
scale = "{0.8, -1.1}";
type = Corner;
}
);
};
width = 368;
}
);
unicode = 74;
}
{
glyphname = P;
layers = (
{
anchors = (
{
name = bottom;
pos = (359,0);
},
{
name = top;
pos = (359,760);
}
);
layerId = m01;
shapes = (
{
closed = 1;
nodes = (
(225,0,l),
(245,0,o),
(261,-1,o),
(325,-1,c),
(335,-1,o),
(340,26,o),
(331,31,c),
(260,69,o),
(253,66,o),
(253,138,c),
(253,300,l),
(451,287,o),
(634,347,o),
(634,539,cs),
(634,650,o),
(562,760,o),
(360,760,cs),
(181,760,l),
(161,760,o),
(145,761,o),
(81,761,c),
(71,761,o),
(66,734,o),
(75,729,c),
(146,691,o),
(153,694,o),
(153,623,c),
(153,138,l),
(153,66,o),
(146,69,o),
(75,31,c),
(66,26,o),
(71,-1,o),
(81,-1,c),
(145,-1,o),
(161,0,o),
(181,0,c)
);
},
{
closed = 1;
nodes = (
(253,695,l),
(392,720,o),
(529,673,o),
(529,520,cs),
(529,372,o),
(383,335,o),
(253,370,c)
);
}
);
userData = {
com.schriftgestaltung.Glyphs.layer.corners = (
{
name = _corner.serif;
origin = _corner00;
scale = "{0.8, 1.1}";
type = Corner;
},
{
name = _corner.serif;
options = 1;
origin = _corner01;
scale = "{0.8, -1.1}";
type = Corner;
},
{
name = _corner.serif;
options = 1;
origin = _corner02;
scale = "{0.8, -1.1}";
type = Corner;
}
);
};
width = 674;
},
{
anchors = (
{
name = bottom;
pos = (335,0);
},
{
name = top;
pos = (335,760);
}
);
layerId = m002;
shapes = (
{
closed = 1;
nodes = (
(231,0,l),
(251,0,o),
(267,-1,o),
(323,-1,c),
(333,-1,o),
(342,43,o),
(333,48,c),
(270,86,o),
(259,88,o),
(259,160,c),
(259,290,l),
(447,267,o),
(640,347,o),
(640,529,cs),
(640,650,o),
(568,760,o),
(366,760,cs),
(137,760,l),
(117,760,o),
(101,761,o),
(45,761,c),
(35,761,o),
(26,717,o),
(35,712,c),
(98,674,o),
(109,672,o),
(109,601,c),
(109,160,l),
(109,88,o),
(98,86,o),
(35,48,c),
(26,43,o),
(35,-1,o),
(45,-1,c),
(101,-1,o),
(117,0,o),
(137,0,c)
);
},
{
closed = 1;
nodes = (
(259,685,l),
(368,700,o),
(485,673,o),
(485,520,cs),
(485,372,o),
(359,345,o),
(259,370,c)
);
}
);
userData = {
com.schriftgestaltung.Glyphs.layer.corners = (
{
name = _corner.serif;
origin = _corner00;
scale = "{0.8, 1.1}";
type = Corner;
},
{
name = _corner.serif;
options = 1;
origin = _corner01;
scale = "{0.8, -1.1}";
type = Corner;
},
{
name = _corner.serif;
options = 1;
origin = _corner02;
scale = "{0.8, -1.1}";
type = Corner;
}
);
};
width = 670;
}
);
unicode = 80;
}
{
glyphname = S;
layers = (
{
anchors = (
{
name = bottom;
pos = (312,0);
},
{
name = top;
pos = (322,750);
}
);
background = {
shapes = (
{
closed = 1;
nodes = (
(34,57,l),
(220,-77,o),
(543,0,o),
(543,225,cs),
(543,533,o),
(121,378,o),
(121,578,cs),
(121,660,o),
(188,707,o),
(264,707,cs),
(337,707,o),
(414,669,o),
(455,555,c),
(461,550,o),
(500,561,o),
(502,569,c),
(480,724,l),
(416,755,o),
(356,770,o),
(297,770,cs),
(165,770,o),
(23,685,o),
(23,551,cs),
(23,266,o),
(440,438,o),
(440,206,cs),
(440,27,o),
(121,-40,o),
(73,255,c),
(66,261,o),
(23,255,o),
(20,247,c)
);
}
);
};
layerId = m01;
shapes = (
{
closed = 1;
nodes = (
(84,57,l),
(146,12,o),
(221,-9,o),
(294,-9,cs),
(419,-9,o),
(553,75,o),
(553,225,cs),
(553,493,o),
(181,398,o),
(181,588,cs),
(181,656,o),
(240,707,o),
(308,707,cs),
(368,707,o),
(434,669,o),
(475,565,c),
(485,557,o),
(519,564,o),
(517,579,cs),
(500,724,l),
(450,754,o),
(393,770,o),
(337,770,cs),
(206,770,o),
(83,680,o),
(83,561,cs),
(83,296,o),
(455,413,o),
(455,186,cs),
(455,110,o),
(397,53,o),
(314,53,cs),
(242,53,o),
(161,101,o),
(117,235,cs),
(113,248,o),
(73,236,o),
(70,227,c)
);
}
);
width = 623;
},
{
anchors = (
{
name = bottom;
pos = (292,0);
},
{
name = top;
pos = (292,760);
}
);
background = {
shapes = (
{
closed = 1;
nodes = (
(64,57,l),
(126,12,o),
(201,-9,o),
(274,-9,cs),
(399,-9,o),
(533,75,o),
(533,225,cs),
(533,493,o),
(161,398,o),
(161,588,cs),
(161,656,o),
(220,707,o),
(288,707,cs),
(348,707,o),
(414,669,o),
(455,565,c),
(465,557,o),
(499,564,o),
(497,579,cs),
(480,724,l),
(430,754,o),
(373,770,o),
(317,770,cs),
(186,770,o),
(63,680,o),
(63,561,cs),
(63,296,o),
(435,413,o),
(435,186,cs),
(435,110,o),
(377,53,o),
(294,53,cs),
(222,53,o),
(141,101,o),
(97,235,cs),
(93,248,o),
(53,236,o),
(50,227,c)
);
}
);
};
layerId = m002;
shapes = (
{
closed = 1;
nodes = (
(45,56,l),
(100,13,o),
(174,-8,o),
(248,-8,cs),
(395,-8,o),
(543,75,o),
(543,225,cs),
(543,489,o),
(161,434,o),
(161,588,cs),
(161,649,o),
(213,693,o),
(274,693,cs),
(329,693,o),
(392,652,o),
(442,568,cs),
(451,553,o),
(499,563,o),
(497,581,cs),
(479,726,l),
(429,752,o),
(357,769,o),
(295,769,cs),
(163,769,o),
(33,690,o),
(33,541,cs),
(33,289,o),
(395,366,o),
(395,186,cs),
(395,128,o),
(341,71,o),
(272,71,cs),
(213,71,o),
(142,114,o),
(88,237,cs),
(82,251,o),
(29,238,o),
(30,225,cs)
);
}
);
width = 583;
}
);
unicode = 83;
}
{
glyphname = T;
layers = (
{
anchors = (
{
name = bottom;
pos = (392,0);
},
{
name = center;
pos = (392,380);
},
{
name = top;
pos = (392,760);
}
);
layerId = m01;
shapes = (
{
closed = 1;
nodes = (
(31,590,l),
(25,576,o),
(58,562,o),
(64,576,c),
(131,686,o),
(135,704,o),
(237,704,cs),
(324,704,o),
(342,699,o),
(342,640,cs),
(342,138,l),
(342,66,o),
(335,69,o),
(264,31,c),
(255,26,o),
(260,-1,o),
(270,-1,c),
(334,-1,o),
(350,0,o),
(370,0,c),
(414,0,l),
(434,0,o),
(450,-1,o),
(514,-1,c),
(524,-1,o),
(529,26,o),
(520,31,c),
(449,69,o),
(442,66,o),
(442,138,c),
(442,640,ls),
(442,699,o),
(460,704,o),
(547,704,cs),
(649,704,o),
(653,686,o),
(720,576,c),
(726,562,o),
(759,576,o),
(753,590,c),
(728,760,l),
(717,769,l),
(577,760,l),
(207,760,l),
(67,769,l),
(56,760,l)
);
}
);
userData = {
com.schriftgestaltung.Glyphs.layer.corners = (
{
name = _corner.serif;
origin = _corner00;
scale = "{-0.8, -1.1}";
type = Corner;
},
{
name = _corner.serif;
options = 1;
origin = _corner01;
scale = "{0.8, -1.1}";
type = Corner;
},
{
name = _segment.bulge;
origin = _corner02;
type = Segment;
},
{
name = _segment.bulge;
origin = _corner03;
type = Segment;
},
{
name = _corner.mitre;
origin = _corner04;
type = Corner;
},
{
name = _corner.mitre;
origin = _corner05;
type = Corner;
}
);
};
width = 784;
},
{
anchors = (
{
name = bottom;
pos = (396,0);
},
{
name = center;
pos = (396,380);
},
{
name = top;
pos = (396,760);
}
);
layerId = m002;
shapes = (
{
closed = 1;
nodes = (
(20,570,l),
(16,555,o),
(69,541,o),
(73,556,c),
(140,666,o),
(144,684,o),
(226,684,cs),
(313,684,o),
(321,679,o),
(321,620,cs),
(321,160,l),
(321,88,o),
(310,86,o),
(247,48,c),
(238,43,o),
(247,-1,o),
(257,-1,c),
(313,-1,o),
(329,0,o),
(349,0,c),
(443,0,l),
(463,0,o),
(479,-1,o),
(535,-1,c),
(545,-1,o),
(554,43,o),
(545,48,c),
(482,86,o),
(471,88,o),
(471,160,c),
(471,620,ls),
(471,679,o),
(479,684,o),
(566,684,cs),
(648,684,o),
(652,666,o),
(719,556,c),
(723,541,o),
(776,555,o),
(772,570,c),
(749,750,l),
(726,769,l),
(596,760,l),
(196,760,l),
(66,769,l),
(43,750,l)
);
}
);
userData = {
com.schriftgestaltung.Glyphs.layer.corners = (
{
name = _corner.serif;
origin = _corner00;
scale = "{-0.8, -1.1}";
type = Corner;
},
{
name = _corner.serif;
options = 1;
origin = _corner01;
scale = "{0.8, -1.1}";
type = Corner;
},
{
name = _segment.bulge;
origin = _corner02;
type = Segment;
},
{
name = _segment.bulge;
origin = _corner03;
type = Segment;
},
{
name = _corner.mitre;
origin = _corner04;
type = Corner;
},
{
name = _corner.mitre;
origin = _corner05;
type = Corner;
}
);
};
width = 792;
}
);
unicode = 84;
}
{
glyphname = U;
layers = (
{
anchors = (
{
name = bottom;
pos = (458,0);
},
{
name = ogonek;
pos = (574,10);
},
{
name = top;
pos = (488,760);
},
{
name = topright;
pos = (846,760);
}
);
layerId = m01;
shapes = (
{
closed = 1;
nodes = (
(674,-10,o),
(763,133,o),
(763,295,cs),
(763,623,l),
(763,694,o),
(770,691,o),
(841,729,c),
(850,734,o),
(845,761,o),
(835,761,c),
(771,761,o),
(755,760,o),
(735,760,c),
(731,760,l),
(711,760,o),
(695,761,o),
(631,761,c),
(621,761,o),
(616,734,o),
(625,729,c),
(696,691,o),
(703,694,o),
(703,623,c),
(703,295,ls),
(703,150,o),
(612,70,o),
(483,70,cs),
(365,70,o),
(253,113,o),
(253,296,cs),
(253,623,l),
(253,694,o),
(260,691,o),
(331,729,c),
(340,734,o),
(335,761,o),
(325,761,c),
(261,761,o),
(245,760,o),
(225,760,c),
(181,760,l),
(161,760,o),
(145,761,o),
(81,761,c),
(71,761,o),
(66,734,o),
(75,729,c),
(146,691,o),
(153,694,o),
(153,623,c),
(153,305,ls),
(153,87,o),
(264,-10,o),
(459,-10,cs)
);
}
);
userData = {
com.schriftgestaltung.Glyphs.layer.corners = (
{
name = _corner.serif;
origin = _corner00;
scale = "{0.8, 1.1}";
type = Corner;
},
{
name = _corner.serif;
options = 1;
origin = _corner01;
scale = "{0.8, -1.1}";
type = Corner;
},
{
name = _corner.serif;
origin = _corner02;
scale = "{0.8, 1.1}";
type = Corner;
},
{
name = _corner.serif;
options = 1;
origin = _corner03;
scale = "{0.8, -1.1}";
type = Corner;
}
);
};
width = 896;
},
{
anchors = (
{
name = bottom;
pos = (433,0);
},
{
name = ogonek;
pos = (531,3);
},
{
name = top;
pos = (433,760);
},
{
name = topright;
pos = (846,760);
}
);
layerId = m002;
shapes = (
{
closed = 1;
nodes = (
(654,-10,o),
(753,133,o),
(753,295,cs),
(753,601,l),
(753,672,o),
(766,674,o),
(837,712,c),
(847,717,o),
(837,761,o),
(825,761,c),
(762,761,o),
(744,760,o),
(722,760,c),
(695,760,l),
(672,760,o),
(654,761,o),
(591,761,c),
(579,761,o),
(569,717,o),
(579,712,c),
(650,674,o),
(663,672,o),
(663,601,c),
(663,305,ls),
(663,160,o),
(572,90,o),
(463,90,cs),
(365,90,o),
(258,153,o),
(258,306,cs),
(258,601,l),
(258,672,o),
(269,674,o),
(332,712,c),
(341,717,o),
(332,761,o),
(322,761,c),
(266,761,o),
(250,760,o),
(230,760,c),
(131,760,l),
(111,760,o),
(95,761,o),
(39,761,c),
(29,761,o),
(20,717,o),
(29,712,c),
(92,674,o),
(103,672,o),
(103,601,c),
(103,305,ls),
(103,87,o),
(204,-10,o),
(429,-10,cs)
);
}
);
userData = {
com.schriftgestaltung.Glyphs.layer.corners = (
{
name = _corner.serif;
origin = _corner00;
scale = "{0.8, 1.1}";
type = Corner;
},
{
name = _corner.serif;
options = 1;
origin = _corner01;
scale = "{0.8, -1.1}";
type = Corner;
},
{
name = _corner.serif;
origin = _corner02;
scale = "{0.9, 1.1}";
type = Corner;
},
{
name = _corner.serif;
options = 1;
origin = _corner03;
scale = "{0.9, -1.1}";
type = Corner;
}
);
};
width = 866;
}
);
unicode = 85;
}
{
glyphname = Y;
layers = (
{
anchors = (
{
name = bottom;
pos = (353,0);
},
{
name = top;
pos = (373,740);
},
{
name = topleft;
pos = (20,760);
}
);
layerId = m01;
shapes = (
{
closed = 1;
nodes = (
(46,701,o),
(50,714,o),
(133,595,cs),
(294,365,l),
(294,138,l),
(294,66,o),
(287,69,o),
(216,31,c),
(207,26,o),
(212,-1,o),
(222,-1,c),
(286,-1,o),
(302,0,o),
(322,0,c),
(366,0,l),
(386,0,o),
(402,-1,o),
(466,-1,c),
(476,-1,o),
(481,26,o),
(472,31,c),
(401,69,o),
(394,66,o),
(394,138,c),
(394,365,l),
(563,595,ls),
(649,712,o),
(670,701,o),
(712,729,cs),
(720,734,o),
(716,761,o),
(705,761,cs),
(665,760,o),
(580,760,o),
(500,761,cs),
(490,761,o),
(485,734,o),
(494,729,cs),
(541,703,o),
(543,693,o),
(474,587,cs),
(371,429,l),
(262,587,ls),
(189,693,o),
(177,708,o),
(232,729,cs),
(242,733,o),
(236,761,o),
(226,761,cs),
(146,760,o),
(61,760,o),
(1,761,cs),
(-10,761,o),
(-14,734,o),
(-6,729,cs)
);
}
);
userData = {
com.schriftgestaltung.Glyphs.layer.corners = (
{
name = _corner.serif;
origin = _corner00;
scale = "{0.8, 1.1}";
type = Corner;
},
{
name = _corner.serif;
options = 1;
origin = _corner01;
scale = "{0.8, -1.1}";
type = Corner;
}
);
};
width = 706;
},
{
anchors = (
{
name = bottom;
pos = (376,0);
},
{
name = top;
pos = (376,760);
},
{
name = topleft;
pos = (20,760);
}
);
background = {
shapes = (
{
closed = 1;
nodes = (
(51,701,o),
(55,714,o),
(138,595,cs),
(299,365,l),
(299,0,l,{
name = _corner00;
}),
(399,0,l,{
name = _corner01;
}),
(399,365,l),
(568,595,ls),
(654,712,o),
(675,701,o),
(717,729,cs),
(725,734,o),
(721,761,o),
(710,761,cs),
(670,760,o),
(585,760,o),
(505,761,cs),
(495,761,o),
(490,734,o),
(499,729,cs),
(546,703,o),
(548,693,o),
(479,587,cs),
(376,429,l),
(267,587,ls),
(194,693,o),
(182,708,o),
(237,729,cs),
(247,733,o),
(241,761,o),
(231,761,cs),
(151,760,o),
(66,760,o),
(6,761,cs),
(-5,761,o),
(-9,734,o),
(-1,729,cs)
);
}
);
};
layerId = m002;
shapes = (
{
closed = 1;
nodes = (
(66,681,o),
(83,672,o),
(133,595,cs),
(304,331,l),
(304,160,l),
(304,88,o),
(293,86,o),
(230,48,c),
(221,43,o),
(230,-1,o),
(240,-1,c),
(296,-1,o),
(312,0,o),
(332,0,c),
(416,0,l),
(436,0,o),
(452,-1,o),
(508,-1,c),
(518,-1,o),
(527,43,o),
(518,48,c),
(455,86,o),
(444,88,o),
(444,160,c),
(444,345,l),
(608,595,ls),
(663,679,o),
(695,681,o),
(757,709,c),
(765,714,o),
(761,761,o),
(750,761,cs),
(690,760,o),
(595,760,o),
(505,761,cs),
(495,761,o),
(490,714,o),
(499,710,cs),
(556,683,o),
(557,679,o),
(499,587,cs),
(405,439,l),
(312,587,ls),
(252,682,o),
(227,688,o),
(282,709,cs),
(292,713,o),
(286,761,o),
(276,761,cs),
(196,760,o),
(81,760,o),
(1,761,cs),
(-10,761,o),
(-14,714,o),
(-6,709,c)
);
}
);
userData = {
com.schriftgestaltung.Glyphs.layer.corners = (
{
name = _corner.serif;
origin = _corner00;
scale = "{0.8, 1.1}";
type = Corner;
},
{
name = _corner.serif;
options = 1;
origin = _corner01;
scale = "{0.8, -1.1}";
type = Corner;
}
);
};
width = 751;
}
);
unicode = 89;
}
{
glyphname = Z;
layers = (
{
anchors = (
{
name = bottom;
pos = (355,0);
},
{
name = center;
pos = (355,380);
},
{
name = top;
pos = (375,740);
}
);
layerId = m01;
shapes = (
{
closed = 1;
nodes = (
(670,715,l),
(653,760,l),
(115,760,l),
(103,750,l),
(79,601,l),
(73,587,o),
(106,573,o),
(112,587,c),
(169,677,o),
(183,695,o),
(355,700,cs),
(545,705,l),
(40,45,l),
(57,0,l),
(625,0,l),
(637,10,l),
(661,169,l),
(667,183,o),
(634,197,o),
(628,183,c),
(571,83,o),
(557,73,o),
(385,65,cs),
(170,55,l)
);
}
);
userData = {
com.schriftgestaltung.Glyphs.layer.corners = (
{
name = _corner.mitre;
options = 1;
origin = _corner00;
scale = "{1, -1}";
type = Corner;
},
{
name = _corner.mitre;
options = 1;
origin = _corner01;
scale = "{1, -1}";
type = Corner;
},
{
name = _segment.bulge;
origin = _corner02;
type = Segment;
},
{
name = _segment.bulge;
origin = _corner03;
type = Segment;
}
);
};
width = 710;
},
{
anchors = (
{
name = bottom;
pos = (365,0);
},
{
name = center;
pos = (365,380);
},
{
name = top;
pos = (365,760);
}
);
layerId = m002;
shapes = (
{
closed = 1;
nodes = (
(680,715,l),
(663,760,l),
(135,760,l),
(112,740,l),
(89,571,l),
(85,556,o),
(138,542,o),
(142,557,c),
(199,647,o),
(213,671,o),
(385,680,cs),
(485,685,l),
(50,45,l),
(67,0,l),
(625,0,l),
(648,20,l),
(671,199,l),
(675,214,o),
(622,228,o),
(618,213,c),
(551,113,o),
(537,97,o),
(375,85,cs),
(240,75,l)
);
}
);
userData = {
com.schriftgestaltung.Glyphs.layer.corners = (
{
name = _corner.mitre;
options = 1;
origin = _corner00;
scale = "{1, -1}";
type = Corner;
},
{
name = _corner.mitre;
options = 1;
origin = _corner01;
scale = "{1, -1}";
type = Corner;
},
{
name = _segment.bulge;
origin = _corner02;
type = Segment;
},
{
name = _segment.bulge;
origin = _corner03;
type = Segment;
}
);
};
width = 730;
}
);
unicode = 90;
}
{
glyphname = e;
layers = (
{
anchors = (
{
name = bottom;
pos = (266,0);
},
{
name = ogonek;
pos = (459,60);
},
{
name = top;
pos = (280,500);
}
);
background = {
shapes = (
{
closed = 1;
nodes = (
(328,-10,o),
(394,12,o),
(470,70,c),
(449,110,l,{
name = _corner06;
}),
(272,14,o),
(155,81,o),
(155,279,cs),
(155,374,o),
(195,440,o),
(275,440,cs),
(333,440,o),
(373,407,o),
(415,370,cs),
(442,346,o),
(476,449,o),
(455,470,cs),
(435,490,o),
(381,511,o),
(316,511,cs),
(193,511,o),
(60,393,o),
(60,232,cs),
(60,97,o),
(150,-10,o),
(273,-10,cs)
);
}
);
};
layerId = m01;
shapes = (
{
closed = 1;
nodes = (
(60,77,o),
(155,-10,o),
(278,-10,cs),
(333,-10,o),
(399,12,o),
(475,70,c),
(488,77,o),
(467,117,o),
(454,110,c),
(277,9,o),
(149,91,o),
(149,283,cs),
(149,501,o),
(370,483,o),
(370,325,c),
(140,318,l),
(143,273,l),
(466,273,l),
(476,283,l),
(473,447,o),
(392,510,o),
(290,511,cs),
(183,512,o),
(60,404,o),
(60,232,cs)
);
}
);
userData = {
com.schriftgestaltung.Glyphs.layer.corners = (
{
name = _corner.mitre;
origin = _corner00;
type = Corner;
},
{
name = _segment.bulge;
origin = _corner01;
type = Segment;
}
);
};
width = 532;
},
{
anchors = (
{
name = bottom;
pos = (266,0);
},
{
name = ogonek;
pos = (475,70);
},
{
name = top;
pos = (266,500);
}
);
background = {
shapes = (
{
closed = 1;
nodes = (
(60,77,o),
(155,-10,o),
(278,-10,cs),
(333,-10,o),
(399,12,o),
(475,70,c),
(454,110,l),
(277,9,o),
(149,91,o),
(149,283,cs),
(149,501,o),
(370,483,o),
(370,325,c),
(140,318,l),
(143,273,l),
(476,273,l,{
name = _corner07;
}),
(476,444,o),
(394,510,o),
(290,511,cs),
(183,512,o),
(60,404,o),
(60,232,cs)
);
},
{
closed = 1;
nodes = (
(335,-9,o),
(406,16,o),
(475,70,c),
(444,130,l,{
name = _corner08;
}),
(293,31,o),
(190,96,o),
(190,279,cs),
(190,382,o),
(223,415,o),
(266,415,cs),
(309,415,o),
(362,382,o),
(404,355,cs),
(441,332,o),
(482,448,o),
(460,470,cs),
(434,496,o),
(390,509,o),
(340,509,cs),
(216,509,o),
(55,424,o),
(55,232,cs),
(55,81,o),
(150,-9,o),
(271,-9,cs)
);
}
);
};
layerId = m002;
shapes = (
{
closed = 1;
nodes = (
(50,77,o),
(155,-10,o),
(278,-10,cs),
(333,-10,o),
(399,12,o),
(475,70,c),
(488,77,o),
(457,137,o),
(444,130,c),
(281,42,o),
(184,144,o),
(184,294,cs),
(184,489,o),
(353,446,o),
(340,325,c),
(140,318,l),
(133,258,l),
(456,258,l),
(476,278,l),
(469,459,o),
(370,511,o),
(289,511,cs),
(182,511,o),
(50,403,o),
(50,232,cs)
);
}
);
userData = {
com.schriftgestaltung.Glyphs.layer.corners = (
{
name = _corner.mitre;
origin = _corner00;
type = Corner;
},
{
name = _segment.bulge;
origin = _corner01;
type = Segment;
}
);
};
width = 532;
}
);
unicode = 101;
}
{
glyphname = h;
layers = (
{
anchors = (
{
name = bottom;
pos = (314,0);
},
{
name = center;
pos = (314,400);
},
{
name = top;
pos = (314,800);
}
);
layerId = m01;
shapes = (
{
closed = 1;
nodes = (
(493,0,l),
(510,0,o),
(524,-1,o),
(580,-1,c),
(589,-1,o),
(593,24,o),
(586,28,c),
(523,63,o),
(518,60,o),
(520,125,c),
(526,340,ls),
(528,424,o),
(481,511,o),
(378,511,cs),
(303,511,o),
(232,459,o),
(151,381,c),
(170,360,l),
(343,493,o),
(436,426,o),
(436,300,cs),
(436,125,l),
(436,60,o),
(430,63,o),
(367,28,c),
(360,24,o),
(364,-1,o),
(373,-1,c),
(429,-1,o),
(443,0,o),
(461,0,c)
);
},
{
closed = 1;
nodes = (
(92,689,o),
(111,602,o),
(111,435,cs),
(111,125,l),
(111,60,o),
(105,63,o),
(42,28,c),
(35,24,o),
(39,-1,o),
(48,-1,c),
(104,-1,o),
(118,0,o),
(136,0,c),
(168,0,l),
(188,0,o),
(204,-1,o),
(268,-1,c),
(278,-1,o),
(283,24,o),
(274,28,c),
(203,63,o),
(196,60,o),
(196,125,c),
(196,530,ls),
(196,621,o),
(201,713,o),
(205,804,c),
(197,812,l),
(158,797,o),
(124,782,o),
(85,772,c),
(77,760,l)
);
}
);
userData = {
com.schriftgestaltung.Glyphs.layer.corners = (
{
name = _corner.serif;
options = 1;
origin = _corner00;
scale = "{0.7, -1}";
type = Corner;
},
{
name = _corner.serif;
origin = _corner01;
scale = "{0.7, 1}";
type = Corner;
},
{
name = _corner.serif;
origin = _corner02;
scale = "{0.7, 1}";
type = Corner;
},
{
name = _corner.serif;
options = 1;
origin = _corner03;
scale = "{0.8, -1}";
type = Corner;
},
{
name = _corner.mitre;
origin = _corner04;
type = Corner;
},
{
name = _corner.mitre;
origin = _corner05;
type = Corner;
}
);
};
width = 628;
},
{
anchors = (
{
name = bottom;
pos = (314,0);
},
{
name = center;
pos = (314,400);
},
{
name = top;
pos = (314,800);
}
);
background = {
shapes = (
{
closed = 1;
nodes = (
(516,0,l,{
name = _corner00;
}),
(526,340,ls),
(528,424,o),
(481,511,o),
(378,511,cs),
(303,511,o),
(232,459,o),
(151,381,c),
(170,360,l),
(343,493,o),
(436,426,o),
(436,300,cs),
(436,0,l,{
name = _corner01;
})
);
},
{
closed = 1;
nodes = (
(90,697,o),
(111,610,o),
(111,435,cs),
(111,0,l,{
name = _corner02;
}),
(196,0,l,{
name = _corner03;
}),
(196,530,ls),
(196,625,o),
(201,720,o),
(206,815,c,{
name = _corner04;
}),
(160,798,o),
(121,781,o),
(75,770,c,{
name = _corner05;
})
);
}
);
};
layerId = m002;
shapes = (
{
closed = 1;
nodes = (
(520,0,l),
(538,0,o),
(552,-1,o),
(601,-1,c),
(610,-1,o),
(618,39,o),
(610,44,c),
(555,78,o),
(545,80,o),
(548,145,c),
(553,320,ls),
(557,435,o),
(492,510,o),
(403,510,cs),
(332,510,o),
(248,461,o),
(178,341,c),
(202,320,l),
(275,439,o),
(428,417,o),
(428,270,cs),
(428,145,l),
(428,80,o),
(418,78,o),
(363,44,c),
(355,39,o),
(363,-1,o),
(372,-1,c),
(421,-1,o),
(435,0,o),
(453,0,c)
);
},
{
closed = 1;
nodes = (
(89,629,o),
(108,560,o),
(108,395,cs),
(108,145,l),
(108,80,o),
(98,78,o),
(43,44,c),
(35,39,o),
(43,-1,o),
(52,-1,c),
(101,-1,o),
(115,0,o),
(133,0,c),
(200,0,l),
(220,0,o),
(236,-1,o),
(292,-1,c),
(302,-1,o),
(311,39,o),
(302,44,c),
(239,78,o),
(228,80,o),
(228,145,c),
(228,530,ls),
(228,618,o),
(232,706,o),
(237,793,c),
(219,808,l),
(179,794,o),
(122,777,o),
(81,765,c),
(66,740,l)
);
}
);
userData = {
com.schriftgestaltung.Glyphs.layer.corners = (
{
name = _corner.serif;
options = 1;
origin = _corner00;
scale = "{0.7, -1}";
type = Corner;
},
{
name = _corner.serif;
origin = _corner01;
scale = "{0.7, 1}";
type = Corner;
},
{
name = _corner.serif;
origin = _corner02;
scale = "{0.7, 1}";
type = Corner;
},
{
name = _corner.serif;
options = 1;
origin = _corner03;
scale = "{0.8, -1}";
type = Corner;
},
{
name = _corner.mitre;
origin = _corner04;
type = Corner;
},
{
name = _corner.mitre;
origin = _corner05;
type = Corner;
}
);
};
width = 628;
}
);
unicode = 104;
}
{
glyphname = i;
layers = (
{
anchors = (
{
name = bottom;
pos = (175,0);
}
);
layerId = m01;
shapes = (
{
closed = 1;
nodes = (
(205,640,o),
(227,676,o),
(227,700,c),
(212,734,o),
(175,755,o),
(152,755,c),
(119,740,o),
(97,704,o),
(97,680,c),
(112,646,o),
(149,625,o),
(172,625,c)
);
},
{
closed = 1;
nodes = (
(184,0,l),
(204,0,o),
(220,-1,o),
(284,-1,c),
(294,-1,o),
(299,24,o),
(290,28,c),
(219,63,o),
(212,60,o),
(212,125,c),
(212,504,l),
(203,511,l),
(184,504,o),
(168,497,o),
(108,472,c),
(98,469,o),
(61,456,o),
(51,453,c),
(44,450,o),
(44,421,o),
(54,418,c),
(116,396,o),
(126,391,o),
(127,356,c),
(127,125,l),
(127,60,o),
(121,63,o),
(58,28,c),
(51,24,o),
(55,-1,o),
(64,-1,c),
(120,-1,o),
(134,0,o),
(152,0,c)
);
}
);
userData = {
com.schriftgestaltung.Glyphs.layer.corners = (
{
name = _corner.serif;
options = 1;
origin = _corner00;
scale = "{0.8, -1}";
type = Corner;
},
{
name = _corner.mitre;
origin = _corner01;
type = Corner;
},
{
name = _corner.beak;
options = 1;
origin = _corner02;
scale = "{0.7, -1}";
type = Corner;
},
{
name = _corner.serif;
origin = _corner03;
scale = "{0.7, 1}";
type = Corner;
}
);
};
width = 335;
},
{
anchors = (
{
name = bottom;
pos = (176,0);
}
);
layerId = m002;
shapes = (
{
closed = 1;
nodes = (
(215,635,o),
(243,682,o),
(243,713,c),
(223,758,o),
(175,785,o),
(145,785,c),
(101,765,o),
(73,718,o),
(73,687,c),
(93,642,o),
(141,615,o),
(171,615,c)
);
},
{
closed = 1;
nodes = (
(205,0,l),
(225,0,o),
(241,-1,o),
(297,-1,c),
(307,-1,o),
(316,39,o),
(307,44,c),
(244,78,o),
(233,80,o),
(233,145,c),
(233,494,l),
(214,508,l),
(190,499,o),
(157,488,o),
(91,464,c),
(61,453,o),
(43,449,o),
(13,440,c),
(6,438,o),
(2,397,o),
(12,393,c),
(72,369,o),
(107,373,o),
(108,338,c),
(108,145,l),
(108,80,o),
(98,78,o),
(43,44,c),
(35,39,o),
(43,-1,o),
(52,-1,c),
(101,-1,o),
(115,0,o),
(133,0,c)
);
}
);
userData = {
com.schriftgestaltung.Glyphs.layer.corners = (
{
name = _corner.serif;
options = 1;
origin = _corner00;
scale = "{0.8, -1}";
type = Corner;
},
{
name = _corner.mitre;
origin = _corner01;
type = Corner;
},
{
name = _corner.beak;
options = 1;
origin = _corner02;
scale = "{0.7, -1}";
type = Corner;
},
{
name = _corner.serif;
origin = _corner03;
scale = "{0.7, 1}";
type = Corner;
}
);
};
width = 351;
}
);
unicode = 105;
}
{
glyphname = j;
layers = (
{
background = {
shapes = (
{
closed = 1;
nodes = (
(212,515,l,{
name = _corner00;
}),
(182,503,o),
(158,492,o),
(127,480,c,{
name = _corner01;
}),
(127,-79,ls),
(127,-175,o),
(60,-214,o),
(-44,-145,cs),
(-72,-126,o),
(-120,-228,o),
(-84,-243,cs),
(36,-293,o),
(212,-216,o),
(212,-27,cs)
);
},
{
closed = 1;
nodes = (
(202,640,o),
(224,676,o),
(224,700,c),
(209,734,o),
(172,755,o),
(149,755,c),
(116,740,o),
(94,704,o),
(94,680,c),
(109,646,o),
(146,625,o),
(169,625,c)
);
}
);
};
layerId = m01;
shapes = (
{
closed = 1;
nodes = (
(12,-229,o),
(33,-267,o),
(46,-260,c),
(171,-193,o),
(212,-138,o),
(212,-27,cs),
(212,504,l),
(203,511,l),
(184,504,o),
(168,497,o),
(108,472,c),
(98,469,o),
(61,456,o),
(51,453,c),
(44,450,o),
(44,421,o),
(54,418,c),
(116,396,o),
(126,391,o),
(127,356,c),
(127,-29,ls),
(127,-124,o),
(112,-167,o),
(25,-222,c)
);
},
{
closed = 1;
nodes = (
(202,640,o),
(224,676,o),
(224,700,c),
(209,734,o),
(172,755,o),
(149,755,c),
(116,740,o),
(94,704,o),
(94,680,c),
(109,646,o),
(146,625,o),
(169,625,c)
);
}
);
userData = {
com.schriftgestaltung.Glyphs.layer.corners = (
{
name = _corner.mitre;
origin = _corner00;
type = Corner;
},
{
name = _corner.beak;
options = 1;
origin = _corner01;
scale = "{0.7, -1}";
type = Corner;
},
{
name = _segment.bulge;
origin = _corner02;
type = Segment;
}
);
};
width = 309;
},
{
background = {
shapes = (
{
closed = 1;
nodes = (
(189,515,l,{
name = _corner00;
}),
(159,503,o),
(135,492,o),
(104,480,c,{
name = _corner01;
}),
(104,-79,ls),
(104,-175,o),
(37,-214,o),
(-67,-145,cs),
(-95,-126,o),
(-143,-228,o),
(-107,-243,cs),
(13,-293,o),
(189,-216,o),
(189,-27,cs)
);
},
{
closed = 1;
nodes = (
(179,640,o),
(201,676,o),
(201,700,c),
(186,734,o),
(149,755,o),
(126,755,c),
(93,740,o),
(71,704,o),
(71,680,c),
(86,646,o),
(123,625,o),
(146,625,c)
);
}
);
};
layerId = m002;
shapes = (
{
closed = 1;
nodes = (
(-10,-211,o),
(31,-269,o),
(43,-260,c),
(168,-193,o),
(234,-138,o),
(234,-27,cs),
(234,494,l),
(215,508,l),
(190,499,o),
(157,489,o),
(88,465,c),
(58,454,o),
(41,450,o),
(10,442,c),
(3,440,o),
(-2,399,o),
(8,395,c),
(68,370,o),
(103,373,o),
(104,338,c),
(104,-9,ls),
(104,-104,o),
(89,-147,o),
(2,-202,c)
);
},
{
closed = 1;
nodes = (
(215,635,o),
(243,682,o),
(243,713,c),
(223,758,o),
(175,785,o),
(145,785,c),
(101,765,o),
(73,718,o),
(73,687,c),
(93,642,o),
(141,615,o),
(171,615,c)
);
}
);
userData = {
com.schriftgestaltung.Glyphs.layer.corners = (
{
name = _corner.mitre;
origin = _corner00;
type = Corner;
},
{
name = _corner.beak;
options = 1;
origin = _corner01;
scale = "{0.7, -1}";
type = Corner;
},
{
name = _segment.bulge;
origin = _corner02;
type = Segment;
}
);
};
width = 328;
}
);
unicode = 106;
}
{
glyphname = l;
layers = (
{
anchors = (
{
name = bottom;
pos = (161,0);
},
{
name = center;
pos = (161,400);
},
{
name = top;
pos = (161,800);
},
{
name = topright;
pos = (241,800);
}
);
background = {
shapes = (
{
closed = 1;
nodes = (
(203,0,l,{
name = _corner00;
}),
(203,815,l,{
name = _corner01;
}),
(173,805,o),
(153,800,o),
(113,790,c,{
name = _corner02;
}),
(113,0,l,{
name = _corner03;
})
);
}
);
};
layerId = m01;
shapes = (
{
closed = 1;
nodes = (
(94,689,o),
(113,602,o),
(113,435,cs),
(113,125,l),
(113,60,o),
(107,63,o),
(44,28,c),
(37,24,o),
(41,-1,o),
(50,-1,c),
(106,-1,o),
(120,0,o),
(138,0,c),
(170,0,l),
(190,0,o),
(206,-1,o),
(270,-1,c),
(280,-1,o),
(285,24,o),
(276,28,c),
(205,63,o),
(198,60,o),
(198,125,c),
(198,530,ls),
(198,621,o),
(203,713,o),
(207,804,c),
(199,812,l),
(160,797,o),
(126,782,o),
(87,772,c),
(79,760,l)
);
}
);
userData = {
com.schriftgestaltung.Glyphs.layer.corners = (
{
name = _corner.serif;
options = 1;
origin = _corner00;
scale = "{0.8, -1}";
type = Corner;
},
{
name = _corner.mitre;
origin = _corner01;
type = Corner;
},
{
name = _corner.serif;
origin = _corner02;
scale = "{0.7, 1}";
type = Corner;
},
{
name = _corner.mitre;
origin = _corner03;
type = Corner;
}
);
};
width = 321;
},
{
anchors = (
{
name = bottom;
pos = (173,0);
},
{
name = center;
pos = (173,400);
},
{
name = top;
pos = (173,800);
},
{
name = topright;
pos = (326,800);
}
);
background = {
shapes = (
{
closed = 1;
nodes = (
(243,0,l,{
name = _corner00;
}),
(243,815,l,{
name = _corner01;
}),
(213,805,o),
(193,800,o),
(153,790,c,{
name = _corner02;
}),
(153,0,l,{
name = _corner03;
})
);
}
);
};
layerId = m002;
shapes = (
{
closed = 1;
nodes = (
(89,629,o),
(108,560,o),
(108,395,cs),
(108,145,l),
(108,80,o),
(98,78,o),
(43,44,c),
(35,39,o),
(43,-1,o),
(52,-1,c),
(101,-1,o),
(115,0,o),
(133,0,c),
(200,0,l),
(220,0,o),
(236,-1,o),
(292,-1,c),
(302,-1,o),
(311,39,o),
(302,44,c),
(239,78,o),
(228,80,o),
(228,145,c),
(228,530,ls),
(228,618,o),
(232,706,o),
(237,793,c),
(219,808,l),
(179,794,o),
(122,777,o),
(81,765,c),
(66,740,l)
);
}
);
userData = {
com.schriftgestaltung.Glyphs.layer.corners = (
{
name = _corner.serif;
options = 1;
origin = _corner00;
scale = "{0.8, -1}";
type = Corner;
},
{
name = _corner.mitre;
origin = _corner01;
type = Corner;
},
{
name = _corner.serif;
origin = _corner02;
scale = "{0.7, 1}";
type = Corner;
},
{
name = _corner.mitre;
origin = _corner03;
type = Corner;
}
);
};
width = 346;
}
);
unicode = 108;
}
{
glyphname = t;
layers = (
{
anchors = (
{
name = bottom;
pos = (231,0);
},
{
name = center;
pos = (201,250);
},
{
name = top;
pos = (201,500);
},
{
name = topright;
pos = (241,760);
}
);
background = {
shapes = (
{
closed = 1;
nodes = (
(119,-28,o),
(228,-44,o),
(365,42,c),
(346,82,l),
(254,36,o),
(210,66,o),
(210,169,cs),
(210,259,o),
(210,340,o),
(215,430,c),
(335,430,l),
(345,490,l),
(210,480,l),
(215,611,ls),
(216,626,o),
(160,616,o),
(157,601,cs),
(133,480,o),
(111,476,o),
(50,470,cs),
(40,469,o),
(45,430,o),
(55,430,c),
(123,430,l),
(118,331,o),
(112,255,o),
(115,132,cs)
);
}
);
};
layerId = m01;
shapes = (
{
closed = 1;
nodes = (
(119,-14,o),
(228,-43,o),
(370,29,c),
(384,34,o),
(370,74,o),
(356,69,c),
(254,37,o),
(210,60,o),
(210,163,cs),
(210,253,o),
(210,340,o),
(215,430,c),
(335,430,l),
(350,428,o),
(360,498,o),
(345,500,c),
(210,480,l),
(215,611,ls),
(216,626,o),
(161,616,o),
(157,601,cs),
(133,500,o),
(111,496,o),
(40,470,cs),
(30,466,o),
(35,430,o),
(45,430,c),
(123,430,l),
(118,331,o),
(111,249,o),
(115,126,cs)
);
}
);
userData = {
com.schriftgestaltung.Glyphs.layer.corners = (
{
name = _segment.bulge;
origin = _corner00;
type = Segment;
},
{
name = _segment.bulge;
origin = _corner01;
type = Segment;
}
);
};
width = 401;
},
{
anchors = (
{
name = bottom;
pos = (200,0);
},
{
name = center;
pos = (200,250);
},
{
name = top;
pos = (200,500);
},
{
name = topright;
pos = (260,800);
}
);
background = {
shapes = (
{
closed = 1;
nodes = (
(90,-28,o),
(199,-44,o),
(336,42,c),
(317,82,l),
(225,36,o),
(181,66,o),
(181,169,cs),
(181,259,o),
(181,340,o),
(186,430,c),
(306,430,l),
(316,490,l),
(181,480,l),
(186,611,ls),
(187,626,o),
(131,616,o),
(128,601,cs),
(104,480,o),
(82,476,o),
(21,470,cs),
(11,469,o),
(16,430,o),
(26,430,c),
(94,430,l),
(89,331,o),
(83,255,o),
(86,132,cs)
);
}
);
};
layerId = m002;
shapes = (
{
closed = 1;
nodes = (
(90,-14,o),
(239,-43,o),
(371,39,c),
(385,44,o),
(361,114,o),
(347,109,c),
(265,67,o),
(221,110,o),
(221,183,cs),
(221,253,o),
(221,310,o),
(226,400,c),
(346,400,l),
(361,399,o),
(371,499,o),
(356,500,c),
(221,480,l),
(226,611,ls),
(227,626,o),
(152,616,o),
(148,601,cs),
(124,500,o),
(82,486,o),
(31,471,cs),
(20,468,o),
(26,400,o),
(36,400,c),
(94,400,l),
(89,301,o),
(82,249,o),
(86,126,cs)
);
}
);
userData = {
com.schriftgestaltung.Glyphs.layer.corners = (
{
name = _segment.bulge;
origin = _corner00;
type = Segment;
},
{
name = _segment.bulge;
origin = _corner01;
type = Segment;
}
);
};
width = 400;
}
);
unicode = 116;
}
{
glyphname = u;
layers = (
{
anchors = (
{
name = bottom;
pos = (316,0);
},
{
name = ogonek;
pos = (493,5);
},
{
name = top;
pos = (316,500);
},
{
name = topright;
pos = (612,500);
}
);
background = {
shapes = (
{
closed = 1;
nodes = (
(101,500,l,{
name = _corner00;
}),
(101,170,ls),
(101,86,o),
(146,-11,o),
(259,-11,cs),
(304,-11,o),
(395,11,o),
(481,159,c),
(438,200,l),
(423,108,o),
(365,66,o),
(305,66,cs),
(237,66,o),
(191,104,o),
(191,200,cs),
(191,510,l,{
name = _corner01;
})
);
},
{
closed = 1;
nodes = (
(426,495,l,{
name = _corner02;
}),
(426,-15,l,{
name = _corner03;
}),
(456,-5,o),
(476,0,o),
(516,10,c,{
name = _corner04;
}),
(516,510,l,{
name = _corner05;
})
);
}
);
};
layerId = m01;
shapes = (
{
closed = 1;
nodes = (
(324,-11,o),
(395,41,o),
(481,119,c),
(457,140,l),
(284,7,o),
(187,74,o),
(191,200,cs),
(201,500,l),
(191,508,l),
(131,498,l),
(114,495,o),
(100,493,o),
(45,483,c),
(36,482,o),
(36,457,o),
(44,454,c),
(112,430,o),
(113,434,o),
(110,369,c),
(101,170,ls),
(97,86,o),
(146,-11,o),
(249,-11,cs)
);
},
{
closed = 1;
nodes = (
(498,6,l),
(516,11,o),
(531,15,o),
(588,32,c),
(598,34,o),
(595,60,o),
(586,61,c),
(512,76,o),
(512,72,o),
(514,137,c),
(521,500,l),
(511,508,l),
(459,499,l),
(437,495,o),
(419,493,o),
(348,481,c),
(337,479,o),
(336,453,o),
(346,451,c),
(431,430,o),
(435,434,o),
(434,369,c),
(426,-5,l),
(436,-12,l)
);
}
);
userData = {
com.schriftgestaltung.Glyphs.layer.corners = (
{
name = _corner.serif;
options = 1;
origin = _corner00;
scale = "{-0.9, 1}";
type = Corner;
},
{
name = _corner.mitre;
origin = _corner01;
type = Corner;
},
{
name = _corner.serif;
options = 1;
origin = _corner02;
scale = "{-0.75, 1}";
type = Corner;
},
{
name = _corner.serif;
options = 1;
origin = _corner03;
scale = "{-0.7, 1}";
type = Corner;
},
{
name = _corner.mitre;
origin = _corner04;
type = Corner;
}
);
};
width = 632;
},
{
anchors = (
{
name = bottom;
pos = (329,0);
},
{
name = ogonek;
pos = (592,10);
},
{
name = top;
pos = (329,500);
},
{
name = topright;
pos = (638,500);
}
);
background = {
shapes = (
{
closed = 1;
nodes = (
(424,485,l,{
name = _corner06;
}),
(424,-15,l,{
name = _corner07;
}),
(454,-5,o),
(509,20,o),
(549,30,c,{
name = _corner08;
}),
(549,510,l,{
name = _corner09;
})
);
},
{
closed = 1;
nodes = (
(119,485,l,{
name = _corner10;
}),
(110,170,ls),
(107,76,o),
(154,-11,o),
(247,-11,cs),
(322,-11,o),
(393,41,o),
(479,119,c),
(455,160,l),
(282,57,o),
(237,114,o),
(239,220,cs),
(244,510,l,{
name = _corner11;
})
);
}
);
};
layerId = m002;
shapes = (
{
closed = 1;
nodes = (
(326,-11,o),
(410,38,o),
(460,108,c),
(436,139,l),
(363,70,o),
(230,62,o),
(230,189,cs),
(230,484,l),
(210,501,l),
(130,491,l),
(112,489,o),
(98,488,o),
(50,481,c),
(41,480,o),
(38,440,o),
(47,436,c),
(106,409,o),
(113,408,o),
(111,343,c),
(105,159,ls),
(102,44,o),
(166,-11,o),
(255,-11,cs)
);
},
{
closed = 1;
nodes = (
(542,28,l),
(559,34,o),
(572,38,o),
(618,54,c),
(627,57,o),
(621,98,o),
(612,100,c),
(548,113,o),
(545,113,o),
(545,178,c),
(545,489,l),
(525,506,l),
(439,493,l),
(419,490,o),
(403,488,o),
(348,480,c),
(337,478,o),
(335,438,o),
(344,434,c),
(412,410,o),
(420,409,o),
(420,344,c),
(420,5,l),
(439,-9,l)
);
}
);
userData = {
com.schriftgestaltung.Glyphs.layer.corners = (
{
name = _corner.serif;
options = 1;
origin = _corner00;
scale = "{-0.8, 1}";
type = Corner;
},
{
name = _corner.mitre;
origin = _corner01;
type = Corner;
},
{
name = _corner.serif;
options = 1;
origin = _corner02;
scale = "{-0.7, 1}";
type = Corner;
},
{
name = _corner.serif;
options = 1;
origin = _corner03;
scale = "{-0.7, 1}";
type = Corner;
},
{
name = _corner.mitre;
origin = _corner04;
type = Corner;
}
);
};
width = 658;
}
);
unicode = 117;
}
{
glyphname = v;
layers = (
{
anchors = (
{
name = bottom;
pos = (281,0);
},
{
name = top;
pos = (281,500);
}
);
layerId = m01;
shapes = (
{
closed = 1;
nodes = (
(355,106,l),
(462,371,l),
(486,431,o),
(498,427,o),
(543,462,c),
(548,466,o),
(545,491,o),
(539,491,c),
(499,491,o),
(489,490,o),
(476,490,c),
(434,490,l),
(419,490,o),
(407,491,o),
(359,491,c),
(351,491,o),
(347,466,o),
(354,462,c),
(407,427,o),
(407,431,o),
(388,369,c),
(303,94,l),
(201,370,l),
(179,431,o),
(176,427,o),
(221,462,c),
(226,466,o),
(223,491,o),
(217,491,c),
(177,491,o),
(167,490,o),
(154,490,c),
(90,490,l),
(77,490,o),
(67,491,o),
(27,491,c),
(21,491,o),
(18,466,o),
(23,462,c),
(68,427,o),
(79,431,o),
(102,370,c),
(243,-5,l),
(250,-9,l),
(315,0,l)
);
}
);
userData = {
com.schriftgestaltung.Glyphs.layer.corners = (
{
name = _corner.serif;
options = 1;
origin = _corner00;
scale = "{0.6, -1}";
type = Corner;
},
{
name = _corner.serif;
origin = _corner01;
scale = "{0.5, 1}";
type = Corner;
},
{
name = _corner.serif;
options = 1;
origin = _corner02;
scale = "{0.5, -1}";
type = Corner;
},
{
name = _corner.serif;
origin = _corner03;
scale = "{0.5, 1}";
type = Corner;
},
{
name = _corner.mitre;
origin = _corner04;
scale = "{0.5, 0.5}";
type = Corner;
}
);
};
width = 561;
},
{
anchors = (
{
name = bottom;
pos = (281,0);
},
{
name = top;
pos = (281,500);
}
);
background = {
shapes = (
{
closed = 1;
nodes = (
(425,490,l,{
name = _corner00;
}),
(303,84,l),
(157,490,l,{
name = _corner01;
}),
(57,490,l,{
name = _corner02;
}),
(245,-20,l,{
name = _corner03;
}),
(315,-10,l),
(510,490,l,{
name = _corner04;
})
);
}
);
};
layerId = m002;
shapes = (
{
closed = 1;
nodes = (
(371,133,l),
(469,352,l),
(495,412,o),
(510,412,o),
(550,446,c),
(555,451,o),
(550,491,o),
(543,491,c),
(508,491,o),
(498,490,o),
(486,490,c),
(419,490,l),
(404,490,o),
(392,491,o),
(350,491,c),
(342,491,o),
(336,451,o),
(342,446,c),
(390,412,o),
(393,411,o),
(375,348,c),
(322,157,l),
(243,351,l),
(219,411,o),
(218,412,o),
(258,446,c),
(263,451,o),
(258,491,o),
(251,491,c),
(216,491,o),
(206,490,o),
(194,490,c),
(79,490,l),
(66,490,o),
(56,491,o),
(21,491,c),
(15,491,o),
(9,451,o),
(15,446,c),
(54,412,o),
(69,411,o),
(94,351,c),
(241,-10,l),
(255,-19,l),
(335,-10,l)
);
}
);
userData = {
com.schriftgestaltung.Glyphs.layer.corners = (
{
name = _corner.serif;
options = 1;
origin = _corner00;
scale = "{0.6, -1}";
type = Corner;
},
{
name = _corner.serif;
origin = _corner01;
scale = "{0.5, 1}";
type = Corner;
},
{
name = _corner.serif;
options = 1;
origin = _corner02;
scale = "{0.5, -1}";
type = Corner;
},
{
name = _corner.serif;
origin = _corner03;
scale = "{0.5, 1}";
type = Corner;
},
{
name = _corner.mitre;
origin = _corner04;
scale = "{0.5, 0.5}";
type = Corner;
}
);
};
width = 561;
}
);
unicode = 118;
}
{
glyphname = x;
layers = (
{
anchors = (
{
name = bottom;
pos = (270,0);
},
{
name = top;
pos = (270,500);
}
);
background = {
shapes = (
{
closed = 1;
nodes = (
(113,0,l,{
name = _corner00;
}),
(252,189,l),
(381,0,l,{
name = _corner01;
}),
(491,0,l,{
name = _corner02;
}),
(309,252,l),
(511,490,l,{
name = _corner03;
}),
(426,490,l,{
name = _corner04;
}),
(281,296,l),
(158,490,l,{
name = _corner05;
}),
(48,490,l,{
name = _corner06;
}),
(223,231,l),
(28,0,l,{
name = _corner07;
})
);
}
);
};
guides = (
{
pos = (418,245);
}
);
layerId = m01;
shapes = (
{
closed = 1;
nodes = (
(417,490,l),
(402,490,o),
(390,491,o),
(342,491,c),
(334,491,o),
(331,466,o),
(337,462,c),
(391,427,o),
(384,434,o),
(345,382,c),
(282,298,l),
(226,380,l),
(190,433,o),
(183,427,o),
(227,462,c),
(233,466,o),
(230,491,o),
(223,491,c),
(183,491,o),
(173,490,o),
(161,490,c),
(93,490,l),
(81,490,o),
(71,491,o),
(31,491,c),
(24,491,o),
(21,466,o),
(27,462,c),
(71,427,o),
(87,434,o),
(124,380,c),
(226,234,l),
(117,105,l),
(75,55,o),
(57,63,o),
(13,28,c),
(7,24,o),
(10,-1,o),
(17,-1,c),
(57,-1,o),
(67,0,o),
(79,0,c),
(122,0,l),
(137,0,o),
(149,-1,o),
(197,-1,c),
(205,-1,o),
(208,24,o),
(202,28,c),
(148,63,o),
(155,56,o),
(193,108,c),
(255,191,l),
(310,110,l),
(347,56,o),
(354,63,o),
(310,28,c),
(304,24,o),
(307,-1,o),
(314,-1,c),
(354,-1,o),
(364,0,o),
(376,0,c),
(440,0,l),
(455,0,o),
(467,-1,o),
(515,-1,c),
(523,-1,o),
(526,24,o),
(520,28,c),
(466,63,o),
(449,56,o),
(412,110,c),
(310,255,l),
(422,385,l),
(464,435,o),
(481,427,o),
(526,462,c),
(531,466,o),
(528,491,o),
(522,491,c),
(482,491,o),
(472,490,o),
(459,490,c)
);
}
);
userData = {
com.schriftgestaltung.Glyphs.layer.corners = (
{
name = _corner.serif;
options = 1;
origin = _corner00;
scale = "{0.5, -1}";
type = Corner;
},
{
name = _corner.serif;
origin = _corner01;
scale = "{0.5, 1}";
type = Corner;
},
{
name = _corner.serif;
options = 1;
origin = _corner02;
scale = "{0.6, -1}";
type = Corner;
},
{
name = _corner.serif;
origin = _corner03;
scale = "{0.5, 1}";
type = Corner;
},
{
name = _corner.serif;
options = 1;
origin = _corner04;
scale = "{0.6, -1}";
type = Corner;
},
{
name = _corner.serif;
options = 1;
origin = _corner05;
scale = "{0.6, -1}";
type = Corner;
},
{
name = _corner.serif;
origin = _corner06;
scale = "{0.5, 1}";
type = Corner;
},
{
name = _corner.serif;
origin = _corner07;
scale = "{0.5, 1}";
type = Corner;
}
);
};
width = 539;
},
{
anchors = (
{
name = bottom;
pos = (273,0);
},
{
name = top;
pos = (273,500);
}
);
background = {
shapes = (
{
closed = 1;
nodes = (
(130,0,l,{
name = _corner00;
}),
(269,189,l),
(398,0,l,{
name = _corner01;
}),
(508,0,l,{
name = _corner02;
}),
(326,252,l),
(528,490,l,{
name = _corner03;
}),
(443,490,l,{
name = _corner04;
}),
(298,296,l),
(175,490,l,{
name = _corner05;
}),
(65,490,l,{
name = _corner06;
}),
(240,231,l),
(45,0,l,{
name = _corner07;
})
);
}
);
};
guides = (
{
pos = (435,245);
}
);
layerId = m002;
shapes = (
{
closed = 1;
nodes = (
(403,490,l),
(388,490,o),
(376,491,o),
(334,491,c),
(326,491,o),
(320,451,o),
(326,446,c),
(374,412,o),
(371,413,o),
(334,360,c),
(299,308,l),
(269,357,l),
(235,413,o),
(232,412,o),
(271,446,c),
(277,451,o),
(271,491,o),
(265,491,c),
(230,491,o),
(220,490,o),
(207,490,c),
(94,490,l),
(82,490,o),
(72,491,o),
(37,491,c),
(30,491,o),
(25,451,o),
(30,446,c),
(70,412,o),
(88,414,o),
(125,360,c),
(213,234,l),
(115,124,l),
(72,75,o),
(51,78,o),
(12,44,c),
(6,39,o),
(12,-1,o),
(18,-1,c),
(53,-1,o),
(63,0,o),
(76,0,c),
(143,0,l),
(158,0,o),
(170,-1,o),
(212,-1,c),
(220,-1,o),
(226,39,o),
(220,44,c),
(172,78,o),
(176,76,o),
(214,129,c),
(252,181,l),
(278,134,l),
(310,77,o),
(313,78,o),
(273,44,c),
(268,39,o),
(273,-1,o),
(280,-1,c),
(315,-1,o),
(325,0,o),
(337,0,c),
(445,0,l),
(460,0,o),
(472,-1,o),
(514,-1,c),
(522,-1,o),
(529,39,o),
(522,44,c),
(475,78,o),
(455,77,o),
(419,131,c),
(337,255,l),
(431,365,l),
(474,415,o),
(494,412,o),
(533,446,c),
(539,451,o),
(533,491,o),
(527,491,c),
(492,491,o),
(482,490,o),
(469,490,c)
);
}
);
userData = {
com.schriftgestaltung.Glyphs.layer.corners = (
{
name = _corner.serif;
options = 1;
origin = _corner00;
scale = "{0.5, -1}";
type = Corner;
},
{
name = _corner.serif;
origin = _corner01;
scale = "{0.5, 1}";
type = Corner;
},
{
name = _corner.serif;
options = 1;
origin = _corner02;
scale = "{0.6, -1}";
type = Corner;
},
{
name = _corner.serif;
origin = _corner03;
scale = "{0.5, 1}";
type = Corner;
},
{
name = _corner.serif;
options = 1;
origin = _corner04;
scale = "{0.6, -1}";
type = Corner;
},
{
name = _corner.serif;
options = 1;
origin = _corner05;
scale = "{0.6, -1}";
type = Corner;
},
{
name = _corner.serif;
origin = _corner06;
scale = "{0.5, 1}";
type = Corner;
},
{
name = _corner.serif;
origin = _corner07;
scale = "{0.5, 1}";
type = Corner;
}
);
};
width = 545;
}
);
unicode = 120;
}
{
glyphname = y;
layers = (
{
anchors = (
{
name = bottom;
pos = (273,0);
},
{
name = top;
pos = (273,470);
}
);
layerId = m01;
shapes = (
{
closed = 1;
nodes = (
(314,25,l),
(332,70,l),
(449,371,l),
(472,431,o),
(484,427,o),
(528,462,c),
(534,466,o),
(531,491,o),
(524,491,c),
(484,491,o),
(474,490,o),
(462,490,c),
(419,490,l),
(404,490,o),
(392,491,o),
(344,491,c),
(336,491,o),
(332,466,o),
(339,462,c),
(392,427,o),
(392,431,o),
(373,369,c),
(288,94,l),
(186,370,l),
(164,431,o),
(161,427,o),
(206,462,c),
(211,466,o),
(208,491,o),
(202,491,c),
(162,491,o),
(152,490,o),
(139,490,c),
(75,490,l),
(62,490,o),
(52,491,o),
(12,491,c),
(6,491,o),
(3,466,o),
(8,462,c),
(53,427,o),
(65,431,o),
(88,371,c),
(264,-83,l)
);
},
{
closed = 1;
nodes = (
(332,70,l),
(261,11,l),
(98,-233,ls),
(80,-261,o),
(204,-285,o),
(213,-260,cs)
);
}
);
userData = {
com.schriftgestaltung.Glyphs.layer.corners = (
{
name = _corner.serif;
options = 1;
origin = _corner00;
scale = "{0.6, -1}";
type = Corner;
},
{
name = _corner.serif;
origin = _corner01;
scale = "{0.5, 1}";
type = Corner;
},
{
name = _corner.serif;
options = 1;
origin = _corner02;
scale = "{0.5, -1}";
type = Corner;
},
{
name = _corner.serif;
origin = _corner03;
scale = "{0.5, 1}";
type = Corner;
}
);
};
width = 546;
},
{
anchors = (
{
name = bottom;
pos = (273,0);
},
{
name = top;
pos = (273,500);
}
);
background = {
shapes = (
{
closed = 1;
nodes = (
(332,70,l),
(495,490,l,{
name = _corner00;
}),
(410,490,l,{
name = _corner01;
}),
(288,94,l),
(142,490,l,{
name = _corner02;
}),
(42,490,l,{
name = _corner03;
}),
(239,-18,l)
);
},
{
closed = 1;
nodes = (
(241,11,l),
(98,-233,ls),
(81,-262,o),
(204,-285,o),
(213,-260,cs),
(332,70,l)
);
}
);
};
layerId = m002;
shapes = (
{
closed = 1;
nodes = (
(369,56,l),
(355,98,l),
(469,352,l),
(495,412,o),
(510,412,o),
(550,446,c),
(555,451,o),
(550,491,o),
(543,491,c),
(508,491,o),
(498,490,o),
(486,490,c),
(411,490,l),
(396,490,o),
(384,491,o),
(342,491,c),
(334,491,o),
(328,451,o),
(334,446,c),
(382,412,o),
(385,411,o),
(369,348,c),
(322,157,l),
(243,351,l),
(219,411,o),
(218,412,o),
(258,446,c),
(263,451,o),
(258,491,o),
(251,491,c),
(216,491,o),
(206,490,o),
(194,490,c),
(81,490,l),
(69,490,o),
(59,491,o),
(24,491,c),
(17,491,o),
(12,451,o),
(17,446,c),
(57,412,o),
(72,412,o),
(98,352,c),
(289,-78,l)
);
},
{
closed = 1;
nodes = (
(342,70,l),
(251,21,l),
(128,-233,ls),
(114,-262,o),
(246,-285,o),
(253,-260,cs)
);
}
);
userData = {
com.schriftgestaltung.Glyphs.layer.corners = (
{
name = _corner.serif;
origin = _corner00;
scale = "{0.5, 1}";
type = Corner;
},
{
name = _corner.serif;
options = 1;
origin = _corner01;
scale = "{0.6, -1}";
type = Corner;
},
{
name = _corner.serif;
origin = _corner02;
scale = "{0.5, 1}";
type = Corner;
},
{
name = _corner.serif;
options = 1;
origin = _corner03;
scale = "{0.5, -1}";
type = Corner;
}
);
};
width = 546;
}
);
unicode = 121;
}
{
glyphname = braceleft;
layers = (
{
layerId = m01;
shapes = (
{
closed = 1;
nodes = (
(134,338,o),
(144,402,o),
(144,435,cs),
(144,645,l),
(144,748,o),
(191,785,o),
(343,812,c),
(353,814,o),
(361,773,o),
(351,770,c),
(278,756,o),
(234,746,o),
(234,670,c),
(234,445,ls),
(234,383,o),
(205,329,o),
(126,315,c),
(126,315,l),
(205,301,o),
(234,247,o),
(234,185,cs),
(234,-40,l),
(234,-116,o),
(278,-126,o),
(351,-140,c),
(361,-143,o),
(353,-184,o),
(343,-182,c),
(191,-155,o),
(144,-118,o),
(144,-15,c),
(144,195,ls),
(144,228,o),
(134,292,o),
(54,295,c),
(44,295,o),
(44,335,o),
(54,335,c)
);
}
);
userData = {
com.schriftgestaltung.Glyphs.layer.corners = (
{
name = _corner.mitre;
options = 2;
origin = _corner00;
scale = "{0.2, 0.2}";
type = Corner;
}
);
};
width = 368;
},
{
layerId = m002;
shapes = (
{
closed = 1;
nodes = (
(134,348,o),
(144,412,o),
(144,445,cs),
(144,645,l),
(144,748,o),
(231,795,o),
(383,812,c),
(393,814,o),
(401,753,o),
(391,750,c),
(318,736,o),
(274,726,o),
(274,650,c),
(274,445,ls),
(274,383,o),
(245,330,o),
(169,316,c),
(169,314,l),
(245,300,o),
(274,247,o),
(274,185,cs),
(274,-20,l),
(274,-96,o),
(318,-106,o),
(391,-120,c),
(401,-123,o),
(383,-184,o),
(373,-182,c),
(221,-165,o),
(144,-118,o),
(144,-15,c),
(144,185,ls),
(144,218,o),
(134,282,o),
(34,285,c),
(24,285,o),
(24,345,o),
(34,345,c)
);
}
);
userData = {
com.schriftgestaltung.Glyphs.layer.corners = (
{
name = _corner.mitre;
options = 2;
origin = _corner00;
scale = "{0.2, 0.2}";
type = Corner;
}
);
};
width = 368;
}
);
unicode = 123;
}
{
glyphname = bar;
layers = (
{
layerId = m01;
shapes = (
{
closed = 1;
nodes = (
(160,775,o),
(100,775,o),
(100,760,c),
(100,-250,l),
(100,-265,o),
(160,-265,o),
(160,-250,c),
(160,760,l)
);
}
);
userData = {
com.schriftgestaltung.Glyphs.layer.corners = (
{
name = _segment.bulge;
origin = _corner00;
type = Segment;
},
{
name = _segment.bulge;
origin = _corner01;
type = Segment;
}
);
};
width = 260;
},
{
layerId = m002;
shapes = (
{
closed = 1;
nodes = (
(180,775,o),
(100,775,o),
(100,760,c),
(100,-250,l),
(100,-265,o),
(180,-265,o),
(180,-250,c),
(180,760,l)
);
}
);
userData = {
com.schriftgestaltung.Glyphs.layer.corners = (
{
name = _segment.bulge;
origin = _corner00;
type = Segment;
},
{
name = _segment.bulge;
origin = _corner01;
type = Segment;
}
);
};
width = 280;
}
);
unicode = 124;
}
{
glyphname = sterling;
layers = (
{
background = {
shapes = (
{
closed = 1;
nodes = (
(218,150,o),
(405,-166,o),
(564,102,cs),
(570,111,o),
(531,136,o),
(524,127,cs),
(423,-1,o),
(316,171,o),
(172,115,c),
(260,293,o),
(184,396,o),
(195,549,cs),
(205,685,o),
(353,731,o),
(467,633,cs),
(492,611,o),
(527,714,o),
(505,733,cs),
(418,807,o),
(127,786,o),
(105,477,cs),
(95,330,o),
(196,221,o),
(67,35,c),
(50,14,ls),
(43,5,o),
(83,-20,o),
(90,-11,cs)
);
},
{
closed = 1;
nodes = (
(31,270,l),
(371,270,l),
(371,330,l),
(31,330,l)
);
},
{
closed = 1;
nodes = (
(31,400,l),
(371,400,l),
(371,460,l),
(31,460,l)
);
}
);
};
layerId = m01;
shapes = (
{
closed = 1;
nodes = (
(431,400,l),
(446,400,o),
(446,460,o),
(431,460,c),
(197,460,l),
(177,653,o),
(288,760,o),
(469,631,cs),
(496,611,o),
(530,714,o),
(508,731,cs),
(369,839,o),
(104,728,o),
(104,460,c),
(31,460,l),
(16,460,o),
(16,400,o),
(31,400,c)
);
},
{
closed = 1;
nodes = (
(31,330,l),
(16,330,o),
(16,270,o),
(31,270,c),
(131,270,l),
(138,201,o),
(140,139,o),
(40,25,cs),
(32,16,o),
(68,-20,o),
(76,-12,cs),
(223,150,o),
(405,-166,o),
(564,102,cs),
(570,111,o),
(531,141,o),
(524,132,cs),
(423,4,o),
(316,171,o),
(172,115,c),
(201,173,o),
(212,223,o),
(214,270,c),
(431,270,l),
(446,270,o),
(446,330,o),
(431,330,c)
);
}
);
userData = {
com.schriftgestaltung.Glyphs.layer.corners = (
{
name = _segment.bulge;
origin = _corner00;
type = Segment;
},
{
name = _segment.bulge;
origin = _corner01;
type = Segment;
},
{
name = _segment.bulge;
origin = _corner02;
type = Segment;
},
{
name = _segment.bulge;
origin = _corner03;
type = Segment;
}
);
};
width = 605;
},
{
background = {
shapes = (
{
closed = 1;
nodes = (
(218,150,o),
(405,-166,o),
(564,102,cs),
(570,111,o),
(531,141,o),
(524,132,cs),
(423,4,o),
(316,171,o),
(172,115,c),
(260,293,o),
(184,396,o),
(195,549,cs),
(205,685,o),
(353,731,o),
(467,633,cs),
(492,611,o),
(527,714,o),
(505,733,cs),
(418,807,o),
(127,786,o),
(105,477,cs),
(95,330,o),
(196,221,o),
(67,35,c),
(50,14,ls),
(43,5,o),
(83,-20,o),
(90,-11,cs)
);
},
{
closed = 1;
nodes = (
(31,270,l),
(371,270,l),
(371,330,l),
(31,330,l)
);
},
{
closed = 1;
nodes = (
(31,400,l),
(371,400,l),
(371,460,l),
(31,460,l)
);
}
);
};
layerId = m002;
shapes = (
{
closed = 1;
nodes = (
(431,400,l),
(446,400,o),
(446,470,o),
(431,470,c),
(251,470,l),
(227,656,o),
(302,712,o),
(477,593,cs),
(504,574,o),
(557,714,o),
(535,733,cs),
(448,807,o),
(127,786,o),
(105,470,c),
(31,470,l),
(16,470,o),
(16,400,o),
(31,400,c)
);
},
{
closed = 1;
nodes = (
(31,330,l),
(16,330,o),
(16,260,o),
(31,260,c),
(125,260,l),
(125,197,o),
(108,126,o),
(40,30,c),
(37,15,o),
(84,-18,o),
(90,-11,cs),
(218,150,o),
(419,-186,o),
(596,138,cs),
(603,150,o),
(541,191,o),
(534,182,cs),
(444,68,o),
(338,190,o),
(215,176,c),
(236,206,o),
(249,233,o),
(257,260,c),
(431,260,l),
(446,260,o),
(446,330,o),
(431,330,c)
);
}
);
userData = {
com.schriftgestaltung.Glyphs.layer.corners = (
{
name = _segment.bulge;
origin = _corner00;
type = Segment;
},
{
name = _segment.bulge;
origin = _corner01;
type = Segment;
},
{
name = _segment.bulge;
origin = _corner02;
type = Segment;
},
{
name = _segment.bulge;
origin = _corner03;
type = Segment;
}
);
};
width = 637;
}
);
unicode = 163;
}
{
glyphname = yen;
layers = (
{
layerId = m01;
shapes = (
{
closed = 1;
nodes = (
(551,350,l),
(566,350,o),
(566,410,o),
(551,410,c),
(427,410,l),
(563,595,ls),
(649,712,o),
(670,701,o),
(712,729,cs),
(720,734,o),
(716,761,o),
(705,761,cs),
(665,760,o),
(580,760,o),
(500,761,cs),
(490,761,o),
(485,734,o),
(494,729,cs),
(541,703,o),
(543,693,o),
(474,587,cs),
(371,429,l),
(262,587,ls),
(189,693,o),
(177,708,o),
(232,729,cs),
(242,733,o),
(236,761,o),
(226,761,cs),
(146,760,o),
(61,760,o),
(1,761,cs),
(-10,761,o),
(-14,734,o),
(-6,729,cs),
(46,701,o),
(50,714,o),
(133,595,cs),
(263,410,l),
(141,410,l),
(126,410,o),
(126,350,o),
(141,350,c)
);
},
{
closed = 1;
nodes = (
(141,280,l),
(126,280,o),
(126,220,o),
(141,220,c),
(294,220,l),
(294,138,l),
(294,66,o),
(287,69,o),
(216,31,c),
(207,26,o),
(212,-1,o),
(222,-1,c),
(286,-1,o),
(302,0,o),
(322,0,c),
(366,0,l),
(386,0,o),
(402,-1,o),
(466,-1,c),
(476,-1,o),
(481,26,o),
(472,31,c),
(401,69,o),
(394,66,o),
(394,138,c),
(394,220,l),
(551,220,l),
(566,220,o),
(566,280,o),
(551,280,c)
);
}
);
userData = {
com.schriftgestaltung.Glyphs.layer.corners = (
{
name = _corner.serif;
origin = _corner00;
scale = "{0.8, 1.1}";
type = Corner;
},
{
name = _corner.serif;
options = 1;
origin = _corner01;
scale = "{0.8, -1.1}";
type = Corner;
},
{
name = _segment.bulge;
origin = _corner02;
type = Segment;
},
{
name = _segment.bulge;
origin = _corner03;
type = Segment;
},
{
name = _segment.bulge;
origin = _corner04;
type = Segment;
},
{
name = _segment.bulge;
origin = _corner05;
type = Segment;
}
);
};
width = 706;
},
{
layerId = m002;
shapes = (
{
closed = 1;
nodes = (
(581,310,l),
(596,310,o),
(596,380,o),
(581,380,c),
(467,380,l),
(608,595,ls),
(663,679,o),
(695,681,o),
(757,709,c),
(765,714,o),
(761,761,o),
(750,761,cs),
(690,760,o),
(595,760,o),
(505,761,cs),
(495,761,o),
(490,714,o),
(499,710,cs),
(556,683,o),
(557,679,o),
(499,587,cs),
(405,439,l),
(312,587,ls),
(252,682,o),
(227,688,o),
(282,709,cs),
(292,713,o),
(286,761,o),
(276,761,cs),
(196,760,o),
(81,760,o),
(1,761,cs),
(-10,761,o),
(-14,714,o),
(-6,709,c),
(66,681,o),
(83,672,o),
(133,595,cs),
(272,380,l),
(161,380,l),
(146,380,o),
(146,310,o),
(161,310,c)
);
},
{
closed = 1;
nodes = (
(161,240,l),
(146,240,o),
(146,170,o),
(161,170,c),
(304,170,l),
(304,160,l),
(304,88,o),
(293,86,o),
(230,48,c),
(221,43,o),
(230,-1,o),
(240,-1,c),
(296,-1,o),
(312,0,o),
(332,0,c),
(416,0,l),
(436,0,o),
(452,-1,o),
(508,-1,c),
(518,-1,o),
(527,43,o),
(518,48,c),
(455,86,o),
(444,88,o),
(444,160,c),
(444,170,l),
(581,170,l),
(596,170,o),
(596,240,o),
(581,240,c)
);
}
);
userData = {
com.schriftgestaltung.Glyphs.layer.corners = (
{
name = _segment.bulge;
origin = _corner00;
type = Segment;
},
{
name = _segment.bulge;
origin = _corner01;
type = Segment;
},
{
name = _segment.bulge;
origin = _corner02;
type = Segment;
},
{
name = _segment.bulge;
origin = _corner03;
type = Segment;
},
{
name = _corner.serif;
origin = _corner04;
scale = "{0.8, 1.1}";
type = Corner;
},
{
name = _corner.serif;
options = 1;
origin = _corner05;
scale = "{0.8, -1.1}";
type = Corner;
}
);
};
width = 751;
}
);
unicode = 165;
}
{
glyphname = AE;
layers = (
{
anchors = (
{
name = bottom;
pos = (531,0);
},
{
name = top;
pos = (531,760);
}
);
background = {
shapes = (
{
closed = 1;
nodes = (
(311,760,l),
(251,750,l),
(-64,0,l,{
name = _corner00;
}),
(21,0,l,{
name = _corner01;
})
);
},
{
closed = 1;
nodes = (
(86,265,l),
(476,265,l),
(476,320,l),
(86,320,l)
);
},
{
closed = 1;
nodes = (
(866,-1,l,{
name = _corner02;
}),
(902,179,l),
(869,193,l),
(802,83,o),
(788,55,o),
(646,55,cs),
(519,55,o),
(501,60,o),
(501,119,cs),
(501,365,l),
(635,365,l),
(700,365,o),
(697,359,o),
(732,296,c),
(736,289,o),
(761,293,o),
(761,302,c),
(761,358,o),
(760,372,o),
(760,393,cs),
(760,413,o),
(761,427,o),
(761,483,c),
(761,492,o),
(736,496,o),
(732,489,c),
(697,426,o),
(700,420,o),
(635,420,c),
(501,420,l),
(501,640,ls),
(501,699,o),
(519,704,o),
(646,704,cs),
(768,704,o),
(772,686,o),
(839,576,c),
(872,590,l),
(846,770,l,{
name = _corner03;
}),
(696,760,l),
(401,760,l,{
name = _corner04;
}),
(401,-1,l,{
name = _corner05;
})
);
}
);
};
layerId = m01;
shapes = (
{
closed = 1;
nodes = (
(514,682,l),
(520,680,l),
(520,137,l),
(520,65,o),
(513,68,o),
(442,30,c),
(433,25,o),
(438,-2,o),
(448,-2,c),
(512,-2,o),
(528,-1,o),
(548,-1,c),
(975,-1,l),
(987,9,l),
(1021,179,l),
(1027,193,o),
(994,207,o),
(988,193,c),
(921,83,o),
(907,55,o),
(765,55,cs),
(638,55,o),
(620,60,o),
(620,119,cs),
(620,345,l),
(754,345,ls),
(819,345,o),
(816,339,o),
(851,276,cs),
(855,269,o),
(880,273,o),
(880,282,cs),
(880,338,o),
(879,352,o),
(879,373,cs),
(879,393,o),
(880,407,o),
(880,463,cs),
(880,472,o),
(855,476,o),
(851,469,cs),
(816,406,o),
(819,400,o),
(754,400,cs),
(620,400,l),
(620,640,ls),
(620,699,o),
(638,704,o),
(765,704,cs),
(887,704,o),
(891,686,o),
(958,576,c),
(964,562,o),
(997,576,o),
(991,590,c),
(966,760,l),
(955,769,l),
(815,760,l),
(494,760,l),
(474,760,o),
(458,761,o),
(394,761,c),
(383,761,o),
(378,736,o),
(387,732,c),
(458,697,o),
(455,703,o),
(421,647,c),
(101,124,l),
(63,63,o),
(47,69,o),
(-7,31,c),
(-13,26,o),
(-10,-1,o),
(-2,-1,c),
(46,-1,o),
(58,0,o),
(73,0,c),
(105,0,l),
(127,0,o),
(145,-1,o),
(217,-1,c),
(229,-1,o),
(234,26,o),
(224,31,c),
(144,69,o),
(147,63,o),
(184,124,c)
);
},
{
closed = 1;
nodes = (
(305,340,l),
(585,345,l),
(585,400,l),
(315,405,l)
);
}
);
userData = {
com.schriftgestaltung.Glyphs.layer.corners = (
{
name = _corner.serif;
origin = _corner00;
scale = "{0.6, 1.1}";
type = Corner;
},
{
name = _corner.serif;
options = 1;
origin = _corner01;
scale = "{0.9, -1.1}";
type = Corner;
},
{
name = _corner.mitre;
options = 1;
origin = _corner02;
scale = "{1, -1}";
type = Corner;
},
{
name = _segment.bulge;
origin = _corner03;
type = Segment;
},
{
name = _segment.bulge;
origin = _corner04;
type = Segment;
},
{
name = _corner.mitre;
origin = _corner05;
type = Corner;
},
{
name = _corner.serif;
options = 1;
origin = _corner06;
scale = "{0.8, 1.1}";
type = Corner;
},
{
name = _corner.mitre;
options = 2;
origin = _corner07;
type = Corner;
},
{
name = _corner.serif;
options = 1;
origin = _corner08;
scale = "{-0.8, 1}";
type = Corner;
}
);
};
width = 1092;
},
{
anchors = (
{
name = bottom;
pos = (534,0);
},
{
name = top;
pos = (534,760);
}
);
layerId = m002;
shapes = (
{
closed = 1;
nodes = (
(504,625,l),
(506,624,l),
(491,159,l),
(489,87,o),
(478,86,o),
(413,50,c),
(404,45,o),
(412,1,o),
(422,0,c),
(478,-1,o),
(494,-1,o),
(514,-1,c),
(971,-1,l),
(996,19,l),
(1037,189,l),
(1043,203,o),
(985,227,o),
(979,213,c),
(922,103,o),
(843,75,o),
(761,75,cs),
(634,75,o),
(636,85,o),
(636,144,cs),
(636,355,l),
(740,355,ls),
(805,355,o),
(817,342,o),
(846,271,cs),
(851,258,o),
(898,271,o),
(896,283,cs),
(891,316,o),
(890,344,o),
(890,390,cs),
(890,436,o),
(891,464,o),
(896,497,cs),
(898,509,o),
(850,518,o),
(846,509,cs),
(817,438,o),
(805,425,o),
(740,425,cs),
(636,425,l),
(636,615,ls),
(636,674,o),
(634,684,o),
(761,684,cs),
(833,684,o),
(892,676,o),
(949,566,c),
(953,551,o),
(1011,565,o),
(1007,580,c),
(984,750,l),
(961,769,l),
(831,760,l),
(484,760,l),
(459,760,o),
(439,761,o),
(369,761,c),
(356,761,o),
(345,721,o),
(356,716,c),
(435,682,o),
(438,683,o),
(404,628,c),
(102,145,l),
(64,85,o),
(44,86,o),
(-4,48,c),
(-10,43,o),
(-4,-1,o),
(4,-1,c),
(46,-1,o),
(58,0,o),
(73,0,c),
(125,0,l),
(148,0,o),
(166,-1,o),
(229,-1,c),
(241,-1,o),
(251,43,o),
(241,48,c),
(170,86,o),
(169,85,o),
(206,145,c)
);
},
{
closed = 1;
nodes = (
(241,245,l),
(621,355,l),
(621,420,l),
(241,320,l)
);
}
);
userData = {
com.schriftgestaltung.Glyphs.layer.corners = (
{
name = _corner.serif;
origin = _corner00;
scale = "{0.6, 1.1}";
type = Corner;
},
{
name = _corner.serif;
options = 1;
origin = _corner01;
scale = "{0.9, -1.1}";
type = Corner;
},
{
name = _corner.mitre;
options = 1;
origin = _corner02;
scale = "{1, -1}";
type = Corner;
},
{
name = _segment.bulge;
origin = _corner03;
type = Segment;
},
{
name = _segment.bulge;
origin = _corner04;
type = Segment;
},
{
name = _corner.mitre;
origin = _corner05;
type = Corner;
},
{
name = _corner.serif;
options = 1;
origin = _corner06;
scale = "{0.8, 1.1}";
type = Corner;
},
{
name = _corner.serif;
options = 1;
origin = _corner07;
scale = "{-1, 1}";
type = Corner;
},
{
name = _corner.mitre;
options = 2;
origin = _corner08;
scale = "{0.2, 0.2}";
type = Corner;
}
);
};
width = 1067;
}
);
metricLeft = "=A";
metricRight = "=E";
unicode = 198;
}
{
glyphname = Eth;
layers = (
{
layerId = m01;
shapes = (
{
pos = (10,0);
ref = D;
},
{
closed = 1;
nodes = (
(61,360,l,{
name = _corner00;
}),
(381,360,l),
(381,420,l,{
name = _corner01;
}),
(61,420,l)
);
}
);
userData = {
com.schriftgestaltung.Glyphs.layer.corners = (
{
name = _segment.bulge;
origin = _corner00;
type = Segment;
},
{
name = _segment.bulge;
origin = _corner01;
type = Segment;
}
);
};
width = 894;
},
{
layerId = m002;
shapes = (
{
ref = D;
},
{
closed = 1;
nodes = (
(31,350,l,{
name = _corner00;
}),
(421,350,l),
(421,430,l,{
name = _corner01;
}),
(31,430,l)
);
}
);
userData = {
com.schriftgestaltung.Glyphs.layer.corners = (
{
name = _segment.bulge;
origin = _corner00;
type = Segment;
},
{
name = _segment.bulge;
origin = _corner01;
type = Segment;
}
);
};
width = 850;
}
);
unicode = 208;
}
{
glyphname = Oslash;
layers = (
{
layerId = m01;
shapes = (
{
ref = O;
},
{
closed = 1;
nodes = (
(70,-9,l),
(111,-44,l,{
name = _corner00;
}),
(838,769,l),
(797,804,l,{
name = _corner01;
})
);
}
);
userData = {
com.schriftgestaltung.Glyphs.layer.corners = (
{
name = _segment.bulge;
origin = _corner00;
type = Segment;
},
{
name = _segment.bulge;
origin = _corner01;
type = Segment;
}
);
};
width = 908;
},
{
layerId = m002;
shapes = (
{
pos = (4,0);
ref = O;
},
{
closed = 1;
nodes = (
(50,1,l),
(111,-54,l,{
name = _corner00;
}),
(838,759,l),
(777,814,l,{
name = _corner01;
})
);
}
);
userData = {
com.schriftgestaltung.Glyphs.layer.corners = (
{
name = _segment.bulge;
origin = _corner00;
type = Segment;
},
{
name = _segment.bulge;
origin = _corner01;
type = Segment;
}
);
};
width = 888;
}
);
metricLeft = "=O";
metricRight = "=O";
unicode = 216;
}
{
glyphname = Thorn;
layers = (
{
anchors = (
{
name = bottom;
pos = (359,0);
},
{
name = top;
pos = (359,760);
}
);
layerId = m01;
shapes = (
{
closed = 1;
nodes = (
(225,0,l),
(245,0,o),
(261,-1,o),
(325,-1,c),
(335,-1,o),
(340,26,o),
(331,31,c),
(260,69,o),
(253,66,o),
(253,138,c),
(253,160,l),
(451,147,o),
(634,207,o),
(634,399,cs),
(634,510,o),
(562,620,o),
(360,620,cs),
(153,620,l),
(153,138,l),
(153,66,o),
(146,69,o),
(75,31,c),
(66,26,o),
(71,-1,o),
(81,-1,c),
(145,-1,o),
(161,0,o),
(181,0,c)
);
},
{
closed = 1;
nodes = (
(253,555,l),
(392,580,o),
(529,533,o),
(529,380,cs),
(529,232,o),
(383,195,o),
(253,230,c)
);
},
{
closed = 1;
nodes = (
(253,623,l),
(253,694,o),
(260,691,o),
(331,729,c),
(340,734,o),
(335,761,o),
(325,761,c),
(261,761,o),
(245,760,o),
(225,760,c),
(181,760,l),
(161,760,o),
(145,761,o),
(81,761,c),
(71,761,o),
(66,734,o),
(75,729,c),
(146,691,o),
(153,694,o),
(153,623,c),
(153,600,l),
(253,600,l)
);
}
);
userData = {
com.schriftgestaltung.Glyphs.layer.corners = (
{
name = _corner.serif;
options = 1;
origin = _corner00;
scale = "{0.8, -1.1}";
type = Corner;
},
{
name = _corner.serif;
origin = _corner01;
scale = "{0.8, 1.1}";
type = Corner;
},
{
name = _corner.serif;
options = 1;
origin = _corner02;
scale = "{0.8, -1.1}";
type = Corner;
},
{
name = _corner.serif;
origin = _corner03;
scale = "{0.8, 1.1}";
type = Corner;
}
);
};
width = 674;
},
{
anchors = (
{
name = bottom;
pos = (335,0);
},
{
name = top;
pos = (335,760);
}
);
layerId = m002;
shapes = (
{
closed = 1;
nodes = (
(231,0,l),
(251,0,o),
(267,-1,o),
(323,-1,c),
(333,-1,o),
(342,43,o),
(333,48,c),
(270,86,o),
(259,88,o),
(259,160,c),
(259,170,l),
(447,147,o),
(640,227,o),
(640,399,cs),
(640,500,o),
(568,620,o),
(366,620,cs),
(109,620,l),
(109,160,l),
(109,88,o),
(98,86,o),
(35,48,c),
(26,43,o),
(35,-1,o),
(45,-1,c),
(101,-1,o),
(117,0,o),
(137,0,c)
);
},
{
closed = 1;
nodes = (
(259,545,l),
(368,560,o),
(485,523,o),
(485,390,cs),
(485,252,o),
(359,225,o),
(259,250,c)
);
},
{
closed = 1;
nodes = (
(259,601,l),
(259,672,o),
(270,674,o),
(333,712,c),
(342,717,o),
(333,761,o),
(323,761,c),
(267,761,o),
(251,760,o),
(231,760,c),
(137,760,l),
(117,760,o),
(101,761,o),
(45,761,c),
(35,761,o),
(26,717,o),
(35,712,c),
(98,674,o),
(109,672,o),
(109,601,c),
(109,600,l),
(259,600,l)
);
}
);
userData = {
com.schriftgestaltung.Glyphs.layer.corners = (
{
name = _corner.serif;
options = 1;
origin = _corner00;
scale = "{0.8, -1.1}";
type = Corner;
},
{
name = _corner.serif;
origin = _corner01;
scale = "{0.8, 1.1}";
type = Corner;
},
{
name = _corner.serif;
origin = _corner02;
scale = "{0.8, 1.1}";
type = Corner;
},
{
name = _corner.serif;
options = 1;
origin = _corner03;
scale = "{0.8, -1.1}";
type = Corner;
}
);
};
width = 670;
}
);
metricRight = "=P";
unicode = 222;
}
{
glyphname = ae;
layers = (
{
anchors = (
{
name = bottom;
pos = (403,0);
},
{
name = top;
pos = (403,500);
}
);
background = {
shapes = (
{
closed = 0;
nodes = (
(516,35,l),
(501,70,l)
);
},
{
closed = 1;
nodes = (
(344,135,l),
(308,96,o),
(256,65,o),
(212,65,cs),
(123,65,o),
(103,188,o),
(210,212,cs),
(344,242,l),
(345,288,l),
(169,258,ls),
(-19,226,o),
(26,-10,o),
(177,-10,cs),
(232,-10,o),
(295,29,o),
(345,76,c)
);
},
{
closed = 1;
nodes = (
(333,77,o),
(428,-10,o),
(551,-10,cs),
(606,-10,o),
(672,12,o),
(748,70,c),
(727,110,l),
(550,9,o),
(422,91,o),
(422,283,cs),
(422,501,o),
(643,483,o),
(643,325,c),
(413,318,l),
(416,273,l),
(749,273,l,{
name = _corner00;
}),
(749,444,o),
(667,510,o),
(563,511,cs),
(456,512,o),
(333,404,o),
(333,232,cs)
);
},
{
closed = 1;
nodes = (
(418,338,ls),
(425,529,o),
(246,559,o),
(78,430,c),
(99,390,l),
(199,457,o),
(328,451,o),
(331,321,cs),
(333,232,l),
(330,85,l),
(410,110,l)
);
}
);
};
layerId = m01;
shapes = (
{
closed = 1;
nodes = (
(354,135,l),
(308,86,o),
(256,65,o),
(212,65,cs),
(123,65,o),
(103,188,o),
(210,212,cs),
(344,242,l),
(345,288,l),
(169,258,ls),
(-19,226,o),
(26,-10,o),
(177,-10,cs),
(232,-10,o),
(295,9,o),
(385,96,c)
);
},
{
closed = 1;
nodes = (
(333,77,o),
(428,-10,o),
(551,-10,cs),
(606,-10,o),
(672,12,o),
(748,70,c),
(761,77,o),
(740,117,o),
(727,110,c),
(550,9,o),
(422,91,o),
(422,283,cs),
(422,501,o),
(643,483,o),
(643,325,c),
(413,318,l),
(416,273,l),
(739,273,l),
(749,283,l),
(746,447,o),
(665,510,o),
(563,511,cs),
(456,512,o),
(333,404,o),
(333,232,cs)
);
},
{
closed = 1;
nodes = (
(418,338,ls),
(425,529,o),
(246,559,o),
(78,430,c),
(65,423,o),
(86,383,o),
(99,390,c),
(199,457,o),
(328,451,o),
(331,321,cs),
(333,232,l),
(410,110,l)
);
}
);
userData = {
com.schriftgestaltung.Glyphs.layer.corners = (
{
name = _segment.bulge;
origin = _corner00;
type = Segment;
},
{
name = _segment.bulge;
origin = _corner01;
type = Segment;
},
{
name = _corner.mitre;
origin = _corner02;
type = Corner;
}
);
};
width = 805;
},
{
anchors = (
{
name = bottom;
pos = (399,0);
},
{
name = top;
pos = (399,500);
}
);
layerId = m002;
shapes = (
{
closed = 1;
nodes = (
(396,160,l),
(370,121,o),
(318,80,o),
(274,80,cs),
(185,80,o),
(183,192,o),
(245,209,cs),
(366,242,l),
(367,293,l),
(183,258,ls),
(5,224,o),
(48,-10,o),
(219,-10,cs),
(304,-10,o),
(351,20,o),
(427,106,c)
);
},
{
closed = 1;
nodes = (
(335,77,o),
(420,-10,o),
(543,-10,cs),
(598,-10,o),
(664,12,o),
(740,70,c),
(753,77,o),
(722,137,o),
(709,130,c),
(546,42,o),
(449,144,o),
(449,294,cs),
(449,489,o),
(618,446,o),
(605,325,c),
(405,318,l),
(398,258,l),
(721,258,l),
(741,278,l),
(734,459,o),
(635,511,o),
(554,511,cs),
(447,511,o),
(345,403,o),
(318,242,c)
);
},
{
closed = 1;
nodes = (
(439,308,ls),
(447,499,o),
(278,591,o),
(80,410,c),
(68,401,o),
(99,356,o),
(111,365,c),
(209,435,o),
(307,411,o),
(313,321,cs),
(316,274,l),
(432,140,l)
);
}
);
userData = {
com.schriftgestaltung.Glyphs.layer.corners = (
{
name = _segment.bulge;
origin = _corner00;
type = Segment;
},
{
name = _segment.bulge;
origin = _corner01;
type = Segment;
},
{
name = _corner.mitre;
origin = _corner02;
type = Corner;
}
);
};
width = 797;
}
);
metricRight = "=e";
unicode = 230;
}
{
glyphname = eth;
layers = (
{
anchors = (
{
name = bottom;
pos = (279,0);
},
{
name = top;
pos = (279,800);
}
);
background = {
shapes = (
{
closed = 1;
nodes = (
(416,-8,o),
(512,102,o),
(512,260,cs),
(512,461,o),
(325,663,o),
(101,733,c),
(77,689,l),
(270,605,o),
(413,438,o),
(413,242,cs),
(413,118,o),
(365,51,o),
(287,51,cs),
(209,51,o),
(165,122,o),
(157,212,cs),
(144,363,o),
(281,431,o),
(406,403,c),
(419,443,l),
(245,496,o),
(50,412,o),
(50,219,cs),
(50,116,o),
(124,-8,o),
(270,-8,cs)
);
},
{
closed = 1;
nodes = (
(125,509,l),
(379,723,l),
(343,763,l),
(89,549,l)
);
}
);
};
layerId = m01;
shapes = (
{
closed = 1;
nodes = (
(416,-8,o),
(512,102,o),
(512,260,cs),
(512,461,o),
(325,663,o),
(101,733,c),
(88,740,o),
(64,696,o),
(77,689,c),
(270,605,o),
(413,438,o),
(413,242,cs),
(413,118,o),
(365,51,o),
(287,51,cs),
(209,51,o),
(165,122,o),
(157,212,cs),
(144,363,o),
(281,461,o),
(406,393,c),
(419,433,l),
(245,526,o),
(50,412,o),
(50,219,cs),
(50,116,o),
(124,-8,o),
(270,-8,cs)
);
},
{
closed = 1;
nodes = (
(78,539,o),
(114,499,o),
(125,509,c),
(379,723,l),
(390,733,o),
(354,773,o),
(343,763,c),
(89,549,l)
);
}
);
userData = {
com.schriftgestaltung.Glyphs.layer.corners = (
{
name = _segment.bulge;
origin = _corner00;
type = Segment;
},
{
name = _segment.bulge;
origin = _corner01;
type = Segment;
},
{
name = _segment.bulge;
origin = _corner02;
type = Segment;
}
);
};
width = 557;
},
{
anchors = (
{
name = bottom;
pos = (279,0);
},
{
name = top;
pos = (279,800);
}
);
layerId = m002;
shapes = (
{
closed = 1;
nodes = (
(418,-8,o),
(542,96,o),
(532,286,cs),
(523,451,o),
(343,676,o),
(89,746,c),
(75,752,o),
(47,688,o),
(61,682,c),
(259,603,o),
(380,431,o),
(380,237,cs),
(380,134,o),
(342,71,o),
(283,71,cs),
(244,71,o),
(194,96,o),
(194,220,cs),
(194,322,o),
(248,398,o),
(400,397,c),
(411,453,l),
(227,481,o),
(48,395,o),
(48,216,cs),
(48,90,o),
(138,-8,o),
(267,-8,cs)
);
},
{
closed = 1;
nodes = (
(79,522,o),
(126,474,o),
(137,484,c),
(368,706,l),
(379,717,o),
(331,765,o),
(320,754,c),
(90,532,l)
);
}
);
userData = {
com.schriftgestaltung.Glyphs.layer.corners = (
{
name = _segment.bulge;
origin = _corner00;
type = Segment;
},
{
name = _segment.bulge;
origin = _corner01;
type = Segment;
},
{
name = _segment.bulge;
origin = _corner02;
type = Segment;
}
);
};
width = 558;
}
);
unicode = 240;
}
{
glyphname = divide;
layers = (
{
layerId = m01;
shapes = (
{
closed = 1;
nodes = (
(46,295,o),
(46,225,o),
(61,225,c),
(310,230,l),
(561,225,l),
(576,225,o),
(576,295,o),
(561,295,c),
(310,290,l),
(61,295,l)
);
},
{
pos = (190,31);
ref = period;
scale = (0.8,0.8);
},
{
pos = (190,391);
ref = period;
scale = (0.8,0.8);
}
);
userData = {
com.schriftgestaltung.Glyphs.layer.corners = (
{
name = _segment.bulge;
origin = _corner00;
type = Segment;
},
{
name = _segment.bulge;
origin = _corner01;
type = Segment;
}
);
};
width = 622;
},
{
layerId = m002;
shapes = (
{
closed = 1;
nodes = (
(46,305,o),
(46,215,o),
(61,215,c),
(311,220,l),
(561,215,l),
(576,215,o),
(576,305,o),
(561,305,c),
(311,300,l),
(61,305,l)
);
},
{
pos = (191,11);
ref = period;
scale = (0.8,0.8);
},
{
pos = (191,391);
ref = period;
scale = (0.8,0.8);
}
);
userData = {
com.schriftgestaltung.Glyphs.layer.corners = (
{
name = _segment.bulge;
origin = _corner00;
type = Segment;
},
{
name = _segment.bulge;
origin = _corner01;
type = Segment;
}
);
};
width = 622;
}
);
unicode = 247;
}
{
glyphname = oslash;
layers = (
{
layerId = m01;
shapes = (
{
ref = o;
},
{
closed = 1;
nodes = (
(37,-29,l),
(83,-64,l,{
name = _corner00;
}),
(545,529,l),
(499,564,l,{
name = _corner01;
})
);
}
);
userData = {
com.schriftgestaltung.Glyphs.layer.corners = (
{
name = _segment.bulge;
origin = _corner00;
type = Segment;
},
{
name = _segment.bulge;
origin = _corner01;
type = Segment;
}
);
};
width = 582;
},
{
layerId = m002;
shapes = (
{
ref = o;
},
{
closed = 1;
nodes = (
(32,-19,l),
(93,-69,l,{
name = _corner00;
}),
(550,524,l),
(489,574,l,{
name = _corner01;
})
);
}
);
userData = {
com.schriftgestaltung.Glyphs.layer.corners = (
{
name = _segment.bulge;
origin = _corner00;
type = Segment;
},
{
name = _segment.bulge;
origin = _corner01;
type = Segment;
}
);
};
width = 600;
}
);
unicode = 248;
}
{
glyphname = thorn;
layers = (
{
anchors = (
{
name = bottom;
pos = (299,0);
},
{
name = top;
pos = (299,500);
}
);
layerId = m01;
shapes = (
{
closed = 1;
nodes = (
(92,689,o),
(111,602,o),
(111,435,cs),
(111,-125,l),
(111,-190,o),
(105,-187,o),
(42,-222,c),
(35,-226,o),
(39,-251,o),
(48,-251,c),
(104,-251,o),
(118,-250,o),
(136,-250,c),
(161,-250,l),
(186,-250,o),
(206,-251,o),
(286,-251,c),
(299,-251,o),
(305,-224,o),
(294,-219,c),
(205,-181,o),
(196,-184,o),
(196,-112,c),
(196,530,ls),
(196,621,o),
(201,713,o),
(205,804,c),
(197,812,l),
(158,797,o),
(124,782,o),
(85,772,c),
(77,760,l)
);
},
{
closed = 1;
nodes = (
(545,400,o),
(485,510,o),
(351,510,cs),
(280,510,o),
(199,467,o),
(120,360,c),
(116,345,o),
(155,335,o),
(159,350,c),
(209,405,o),
(262,431,o),
(310,431,cs),
(414,431,o),
(455,353,o),
(455,221,cs),
(455,100,o),
(384,57,o),
(308,57,cs),
(254,57,o),
(199,78,o),
(165,110,c),
(140,25,l),
(165,10,o),
(219,-11,o),
(294,-11,cs),
(407,-11,o),
(545,107,o),
(545,268,cs)
);
}
);
userData = {
com.schriftgestaltung.Glyphs.layer.corners = (
{
name = _segment.bulge;
origin = _corner00;
type = Segment;
},
{
name = _corner.serif;
origin = _corner01;
scale = "{0.7, 1}";
type = Corner;
},
{
name = _corner.serif;
options = 1;
origin = _corner02;
scale = "{1, -1.1}";
type = Corner;
},
{
name = _corner.mitre;
origin = _corner03;
type = Corner;
},
{
name = _corner.mitre;
origin = _corner04;
type = Corner;
}
);
};
width = 598;
},
{
anchors = (
{
name = bottom;
pos = (318,0);
},
{
name = top;
pos = (318,500);
}
);
layerId = m002;
shapes = (
{
closed = 1;
nodes = (
(94,629,o),
(115,557,o),
(112,335,cs),
(109,-105,l),
(109,-170,o),
(99,-172,o),
(43,-206,c),
(36,-211,o),
(43,-251,o),
(52,-251,c),
(101,-251,o),
(115,-250,o),
(133,-250,c),
(198,-250,l),
(223,-250,o),
(243,-251,o),
(313,-251,c),
(326,-251,o),
(337,-207,o),
(326,-202,c),
(247,-164,o),
(233,-162,o),
(233,-90,c),
(233,530,ls),
(233,618,o),
(237,706,o),
(242,793,c),
(224,808,l),
(184,794,o),
(127,777,o),
(86,765,c),
(71,740,l)
);
},
{
closed = 1;
nodes = (
(582,423,o),
(500,508,o),
(402,508,cs),
(318,508,o),
(222,445,o),
(157,310,c),
(157,295,o),
(196,295,o),
(196,310,c),
(252,376,o),
(299,402,o),
(337,402,cs),
(405,402,o),
(447,340,o),
(447,242,cs),
(447,145,o),
(423,68,o),
(344,68,cs),
(285,68,o),
(238,116,o),
(202,150,c),
(177,5,l),
(213,-4,o),
(249,-8,o),
(284,-8,cs),
(445,-8,o),
(582,84,o),
(582,268,cs)
);
}
);
userData = {
com.schriftgestaltung.Glyphs.layer.corners = (
{
name = _corner.serif;
origin = _corner00;
scale = "{1, -1.1}";
type = Corner;
},
{
name = _corner.serif;
origin = _corner01;
scale = "{0.7, 1}";
type = Corner;
},
{
name = _corner.mitre;
origin = _corner02;
type = Corner;
},
{
name = _corner.mitre;
origin = _corner03;
type = Corner;
},
{
name = _segment.bulge;
origin = _corner04;
type = Segment;
}
);
};
width = 635;
}
);
metricLeft = "=h";
metricRight = "=p";
unicode = 254;
}
{
glyphname = oe;
layers = (
{
anchors = (
{
name = bottom;
pos = (458,0);
},
{
name = top;
pos = (458,500);
}
);
layerId = m01;
shapes = (
{
closed = 1;
nodes = (
(403,-10,o),
(532,112,o),
(532,268,cs),
(532,403,o),
(442,510,o),
(309,510,cs),
(175,510,o),
(50,384,o),
(50,232,cs),
(50,97,o),
(140,-10,o),
(273,-10,cs)
);
},
{
closed = 1;
nodes = (
(208,60,o),
(145,135,o),
(145,279,cs),
(145,374,o),
(185,440,o),
(271,440,cs),
(374,440,o),
(437,365,o),
(437,221,cs),
(437,126,o),
(397,60,o),
(311,60,cs)
);
},
{
closed = 1;
nodes = (
(443,77,o),
(538,-10,o),
(661,-10,cs),
(716,-10,o),
(782,12,o),
(858,70,c),
(871,77,o),
(850,117,o),
(837,110,c),
(660,9,o),
(532,91,o),
(532,283,cs),
(532,501,o),
(753,483,o),
(753,325,c),
(523,318,l),
(526,273,l),
(849,273,l),
(859,283,l),
(856,447,o),
(775,510,o),
(673,511,cs),
(566,512,o),
(443,404,o),
(443,232,cs)
);
}
);
userData = {
com.schriftgestaltung.Glyphs.layer.corners = (
{
name = _segment.bulge;
origin = _corner00;
type = Segment;
},
{
name = _corner.mitre;
origin = _corner01;
type = Corner;
}
);
};
width = 915;
},
{
anchors = (
{
name = bottom;
pos = (446,0);
},
{
name = top;
pos = (446,500);
}
);
layerId = m002;
shapes = (
{
closed = 1;
nodes = (
(456,-10,o),
(524,128,o),
(524,262,cs),
(524,388,o),
(447,510,o),
(315,510,cs),
(138,510,o),
(50,372,o),
(50,238,cs),
(50,112,o),
(137,-10,o),
(279,-10,cs)
);
},
{
closed = 1;
nodes = (
(237,58,o),
(191,159,o),
(191,281,cs),
(191,382,o),
(220,430,o),
(277,435,cs),
(358,442,o),
(403,341,o),
(403,219,cs),
(403,118,o),
(374,70,o),
(317,65,cs)
);
},
{
closed = 1;
nodes = (
(430,77,o),
(535,-10,o),
(638,-10,cs),
(693,-10,o),
(759,12,o),
(835,70,c),
(848,77,o),
(817,137,o),
(804,130,c),
(641,42,o),
(544,144,o),
(544,294,cs),
(544,489,o),
(713,446,o),
(700,325,c),
(500,318,l),
(493,258,l),
(816,258,l),
(836,278,l),
(829,459,o),
(730,511,o),
(649,511,cs),
(542,511,o),
(430,403,o),
(430,232,cs)
);
}
);
userData = {
com.schriftgestaltung.Glyphs.layer.corners = (
{
name = _segment.bulge;
origin = _corner00;
type = Segment;
},
{
name = _corner.mitre;
origin = _corner01;
type = Corner;
}
);
};
width = 892;
}
);
metricRight = "=e";
unicode = 339;
}
{
glyphname = rcaron;
layers = (
{
layerId = m01;
shapes = (
{
closed = 1;
nodes = (
(170,0,l),
(197,0,o),
(219,-1,o),
(307,-1,c),
(321,-1,o),
(328,25,o),
(316,29,c),
(218,66,o),
(208,63,o),
(208,131,c),
(208,304,ls),
(208,397,o),
(261,424,o),
(366,392,cs),
(382,387,o),
(419,484,o),
(381,497,cs),
(280,533,o),
(272,497,o),
(208,407,c),
(208,509,l),
(199,516,l),
(182,509,o),
(166,503,o),
(107,478,c),
(96,475,o),
(53,460,o),
(42,456,c),
(35,453,o),
(33,423,o),
(44,420,c),
(112,401,o),
(121,396,o),
(123,361,c),
(123,125,l),
(123,60,o),
(116,63,o),
(45,28,c),
(36,24,o),
(41,-1,o),
(51,-1,c),
(115,-1,o),
(131,0,o),
(151,0,c)
);
},
{
closed = 1;
nodes = (
(273,608,ls),
(249,582,o),
(238,583,o),
(215,608,cs),
(124,710,ls),
(112,724,o),
(141,758,o),
(154,750,cs),
(244,695,l),
(334,750,ls),
(347,758,o),
(376,723,o),
(364,710,cs)
);
}
);
userData = {
com.schriftgestaltung.Glyphs.layer.corners = (
{
name = _corner.serif;
options = 1;
origin = _corner00;
scale = "{1.1, -1.05}";
type = Corner;
},
{
name = _corner.mitre;
origin = _corner01;
type = Corner;
},
{
name = _corner.beak;
options = 1;
origin = _corner02;
scale = "{0.8, -1}";
type = Corner;
},
{
name = _corner.serif;
origin = _corner03;
scale = "{0.8, 1}";
type = Corner;
}
);
};
width = 425;
},
{
layerId = m002;
shapes = (
{
closed = 1;
nodes = (
(202,0,l),
(224,0,o),
(242,-1,o),
(305,-1,c),
(317,-1,o),
(327,39,o),
(317,44,c),
(246,78,o),
(233,80,o),
(233,145,c),
(233,244,ls),
(233,337,o),
(261,364,o),
(366,332,cs),
(382,327,o),
(437,478,o),
(372,500,cs),
(317,519,o),
(301,491,o),
(233,386,c),
(233,494,l),
(214,508,l),
(190,499,o),
(157,488,o),
(91,464,c),
(61,453,o),
(43,449,o),
(13,440,c),
(6,438,o),
(2,397,o),
(12,393,c),
(72,369,o),
(107,373,o),
(108,338,c),
(108,145,l),
(108,80,o),
(98,78,o),
(43,44,c),
(35,39,o),
(43,-1,o),
(52,-1,c),
(101,-1,o),
(115,0,o),
(133,0,c)
);
},
{
closed = 1;
nodes = (
(273,576,ls),
(249,550,o),
(238,551,o),
(215,576,cs),
(124,678,ls),
(112,692,o),
(160,745,o),
(174,738,cs),
(244,703,l),
(314,738,ls),
(328,745,o),
(376,691,o),
(364,678,cs)
);
}
);
userData = {
com.schriftgestaltung.Glyphs.layer.corners = (
{
name = _corner.serif;
options = 1;
origin = _corner00;
scale = "{0.9, -1}";
type = Corner;
},
{
name = _corner.mitre;
origin = _corner01;
type = Corner;
},
{
name = _corner.beak;
options = 1;
origin = _corner02;
scale = "{0.7, -1}";
type = Corner;
},
{
name = _corner.serif;
origin = _corner03;
scale = "{0.7, 1}";
type = Corner;
}
);
};
width = 433;
}
);
metricLeft = "=r";
metricRight = "=r";
unicode = 345;
}
{
glyphname = dotaccentcomb;
layers = (
{
anchors = (
{
name = _top;
pos = (115,500);
},
{
name = top;
pos = (115,755);
}
);
layerId = m01;
shapes = (
{
closed = 1;
nodes = (
(183,640,o),
(205,676,o),
(205,700,c),
(190,734,o),
(153,755,o),
(130,755,c),
(97,740,o),
(75,704,o),
(75,680,c),
(90,646,o),
(127,625,o),
(150,625,c)
);
}
);
width = 230;
},
{
anchors = (
{
name = _top;
pos = (135,500);
},
{
name = top;
pos = (135,785);
}
);
layerId = m002;
shapes = (
{
closed = 1;
nodes = (
(192,635,o),
(220,682,o),
(220,713,c),
(200,758,o),
(152,785,o),
(122,785,c),
(78,765,o),
(50,718,o),
(50,687,c),
(70,642,o),
(118,615,o),
(148,615,c)
);
}
);
width = 270;
}
);
unicode = 775;
}
{
glyphname = alpha;
layers = (
{
anchors = (
{
name = top;
pos = (300,500);
}
);
layerId = m01;
shapes = (
{
closed = 1;
nodes = (
(431,480,l),
(431,1,l),
(440,-6,l),
(535,33,l),
(545,36,o),
(583,49,o),
(593,52,c),
(599,55,o),
(599,84,o),
(589,87,c),
(528,109,o),
(518,114,o),
(517,149,c),
(518,495,l),
(508,502,l)
);
},
{
closed = 1;
nodes = (
(55,100,o),
(115,-10,o),
(249,-10,cs),
(320,-10,o),
(401,33,o),
(480,140,c),
(484,155,o),
(445,165,o),
(441,150,c),
(391,95,o),
(338,69,o),
(290,69,cs),
(186,69,o),
(145,147,o),
(145,279,cs),
(145,400,o),
(216,443,o),
(292,443,cs),
(346,443,o),
(401,422,o),
(435,390,c),
(460,475,l),
(435,490,o),
(381,511,o),
(306,511,cs),
(193,511,o),
(55,393,o),
(55,232,cs)
);
}
);
userData = {
com.schriftgestaltung.Glyphs.layer.corners = (
{
name = _corner.mitre;
origin = _corner00;
type = Corner;
},
{
name = _corner.beak;
options = 1;
origin = _corner01;
scale = "{0.7, -1}";
type = Corner;
},
{
name = _corner.mitre;
origin = _corner02;
type = Corner;
},
{
name = _segment.bulge;
origin = _corner03;
type = Segment;
}
);
};
width = 600;
},
{
anchors = (
{
name = top;
pos = (300,500);
}
);
layerId = m002;
shapes = (
{
closed = 1;
nodes = (
(398,480,l),
(398,1,l),
(417,-13,l),
(535,32,l),
(569,45,o),
(589,51,o),
(623,62,c),
(631,65,o),
(637,107,o),
(625,110,c),
(558,130,o),
(519,124,o),
(518,159,c),
(524,489,l),
(505,505,l)
);
},
{
closed = 1;
nodes = (
(51,77,o),
(133,-8,o),
(231,-8,cs),
(315,-8,o),
(411,55,o),
(476,190,c),
(476,205,o),
(437,205,o),
(437,190,c),
(381,124,o),
(334,98,o),
(296,98,cs),
(228,98,o),
(186,170,o),
(186,278,cs),
(186,394,o),
(229,434,o),
(281,434,cs),
(334,434,o),
(395,394,o),
(431,350,c),
(456,475,l),
(426,497,o),
(379,510,o),
(328,510,cs),
(203,510,o),
(51,435,o),
(51,232,cs)
);
}
);
userData = {
com.schriftgestaltung.Glyphs.layer.corners = (
{
name = _corner.mitre;
origin = _corner00;
type = Corner;
},
{
name = _corner.beak;
options = 1;
origin = _corner01;
scale = "{0.8, -1}";
type = Corner;
},
{
name = _corner.mitre;
origin = _corner02;
type = Corner;
},
{
name = _segment.bulge;
origin = _corner03;
type = Segment;
}
);
};
width = 600;
}
);
unicode = 945;
}
{
glyphname = Germandbls;
layers = (
{
anchors = (
{
name = bottom;
pos = (468,0);
},
{
name = top;
pos = (468,760);
}
);
layerId = m01;
shapes = (
{
closed = 1;
nodes = (
(243,0,l),
(253,10,l),
(253,690,l),
(263,700,l),
(694,700,l),
(525,421,l),
(536,401,l),
(697,373,o),
(745,281,o),
(742,186,cs),
(740,110,o),
(670,53,o),
(587,53,cs),
(515,53,o),
(445,101,o),
(406,235,cs),
(402,248,o),
(362,236,o),
(359,227,c),
(367,57,l),
(427,12,o),
(491,-9,o),
(564,-9,cs),
(689,-9,o),
(836,75,o),
(842,225,cs),
(846,363,o),
(731,457,o),
(637,467,c),
(829,725,l),
(814,760,l),
(181,760,l),
(161,760,o),
(145,761,o),
(81,761,c),
(71,761,o),
(66,734,o),
(75,729,c),
(146,691,o),
(153,694,o),
(153,623,c),
(153,138,l),
(153,66,o),
(146,69,o),
(75,31,c),
(66,26,o),
(71,-1,o),
(81,-1,c),
(145,-1,o),
(161,0,o),
(181,0,c)
);
}
);
userData = {
com.schriftgestaltung.Glyphs.layer.corners = (
{
name = _corner.mitre;
options = 1;
origin = _corner00;
scale = "{2, 2}";
type = Corner;
},
{
name = _corner.mitre;
origin = _corner01;
type = Corner;
},
{
name = _corner.serif;
origin = _corner02;
scale = "{0.8, 1.1}";
type = Corner;
},
{
name = _corner.serif;
options = 1;
origin = _corner03;
scale = "{0.8, -1.1}";
type = Corner;
},
{
name = _corner.mitre;
origin = _corner04;
type = Corner;
}
);
};
width = 912;
},
{
anchors = (
{
name = bottom;
pos = (458,0);
},
{
name = top;
pos = (458,760);
}
);
layerId = m002;
shapes = (
{
closed = 1;
nodes = (
(260,0,l),
(280,20,l),
(280,660,l),
(300,680,l),
(571,680,l),
(456,366,l),
(469,347,l),
(606,350,o),
(706,298,o),
(706,186,cs),
(706,128,o),
(662,74,o),
(603,74,cs),
(554,74,o),
(494,112,o),
(440,217,cs),
(433,231,o),
(380,218,o),
(381,205,cs),
(396,56,l),
(454,11,o),
(518,-8,o),
(580,-8,cs),
(724,-8,o),
(854,97,o),
(854,225,cs),
(854,380,o),
(723,445,o),
(614,467,c),
(786,725,l),
(771,760,l),
(158,760,l),
(138,760,o),
(122,761,o),
(66,761,c),
(56,761,o),
(47,717,o),
(56,712,c),
(119,674,o),
(130,672,o),
(130,601,c),
(130,160,l),
(130,88,o),
(119,86,o),
(56,48,c),
(47,43,o),
(56,-1,o),
(66,-1,c),
(122,-1,o),
(138,0,o),
(158,0,c)
);
}
);
userData = {
com.schriftgestaltung.Glyphs.layer.corners = (
{
name = _corner.serif;
options = 1;
origin = _corner00;
scale = "{0.8, -1.1}";
type = Corner;
},
{
name = _corner.serif;
origin = _corner01;
scale = "{0.8, 1.1}";
type = Corner;
},
{
name = _corner.mitre;
origin = _corner02;
type = Corner;
},
{
name = _corner.mitre;
origin = _corner03;
type = Corner;
},
{
name = _corner.mitre;
origin = _corner04;
type = Corner;
}
);
};
width = 894;
}
);
metricLeft = "=E";
metricRight = "=S";
unicode = 7838;
}
{
glyphname = endash;
layers = (
{
layerId = m01;
shapes = (
{
closed = 1;
nodes = (
(46,290,o),
(46,230,o),
(61,230,c),
(561,230,l),
(576,230,o),
(576,290,o),
(561,290,c),
(61,290,l)
);
}
);
userData = {
com.schriftgestaltung.Glyphs.layer.corners = (
{
name = _segment.bulge;
origin = _corner00;
type = Segment;
},
{
name = _segment.bulge;
origin = _corner01;
type = Segment;
}
);
};
width = 622;
},
{
layerId = m002;
shapes = (
{
closed = 1;
nodes = (
(46,300,o),
(46,220,o),
(61,220,c),
(561,220,l),
(576,220,o),
(576,300,o),
(561,300,c),
(61,300,l)
);
}
);
userData = {
com.schriftgestaltung.Glyphs.layer.corners = (
{
name = _segment.bulge;
origin = _corner00;
type = Segment;
},
{
name = _segment.bulge;
origin = _corner01;
type = Segment;
}
);
};
width = 622;
}
);
unicode = 8211;
}
{
glyphname = emdash;
layers = (
{
layerId = m01;
shapes = (
{
closed = 1;
nodes = (
(76,290,o),
(76,230,o),
(91,230,c),
(780,230,l),
(795,230,o),
(795,290,o),
(780,290,c),
(91,290,l)
);
}
);
userData = {
com.schriftgestaltung.Glyphs.layer.corners = (
{
name = _segment.bulge;
origin = _corner00;
type = Segment;
},
{
name = _segment.bulge;
origin = _corner01;
type = Segment;
}
);
};
width = 871;
},
{
layerId = m002;
shapes = (
{
closed = 1;
nodes = (
(76,300,o),
(76,220,o),
(91,220,c),
(780,220,l),
(795,220,o),
(795,300,o),
(780,300,c),
(91,300,l)
);
}
);
userData = {
com.schriftgestaltung.Glyphs.layer.corners = (
{
name = _segment.bulge;
origin = _corner00;
type = Segment;
},
{
name = _segment.bulge;
origin = _corner01;
type = Segment;
}
);
};
width = 871;
}
);
unicode = 8212;
}
{
glyphname = perthousand;
layers = (
{
layerId = m01;
shapes = (
{
closed = 1;
nodes = (
(850,730,l),
(860,741,o),
(805,791,o),
(795,780,c),
(95,30,l),
(85,19,o),
(140,-31,o),
(150,-20,c)
);
},
{
closed = 1;
nodes = (
(317,380,o),
(413,460,o),
(421,580,cs),
(429,700,o),
(345,780,o),
(234,780,cs),
(125,780,o),
(29,700,o),
(21,580,cs),
(13,460,o),
(97,380,o),
(208,380,cs)
);
},
{
closed = 1;
nodes = (
(161,455,o),
(106,501,o),
(101,580,cs),
(96,659,o),
(144,705,o),
(212,705,cs),
(281,705,o),
(336,659,o),
(341,580,cs),
(346,501,o),
(298,455,o),
(230,455,cs)
);
},
{
closed = 1;
nodes = (
(817,-20,o),
(913,60,o),
(921,180,cs),
(929,300,o),
(845,380,o),
(734,380,cs),
(625,380,o),
(529,300,o),
(521,180,cs),
(513,60,o),
(597,-20,o),
(708,-20,cs)
);
},
{
closed = 1;
nodes = (
(661,55,o),
(606,101,o),
(601,180,cs),
(596,259,o),
(644,305,o),
(712,305,cs),
(781,305,o),
(836,259,o),
(841,180,cs),
(846,101,o),
(798,55,o),
(730,55,cs)
);
},
{
closed = 1;
nodes = (
(1267,-20,o),
(1363,60,o),
(1371,180,cs),
(1379,300,o),
(1295,380,o),
(1184,380,cs),
(1075,380,o),
(979,300,o),
(971,180,cs),
(963,60,o),
(1047,-20,o),
(1158,-20,cs)
);
},
{
closed = 1;
nodes = (
(1111,55,o),
(1056,101,o),
(1051,180,cs),
(1046,259,o),
(1094,305,o),
(1162,305,cs),
(1231,305,o),
(1286,259,o),
(1291,180,cs),
(1296,101,o),
(1248,55,o),
(1180,55,cs)
);
}
);
userData = {
com.schriftgestaltung.Glyphs.layer.corners = (
{
name = _segment.bulge;
origin = _corner00;
type = Segment;
},
{
name = _segment.bulge;
origin = _corner01;
type = Segment;
}
);
};
width = 1392;
},
{
layerId = m002;
shapes = (
{
closed = 1;
nodes = (
(885,715,l),
(895,726,o),
(810,806,o),
(800,795,c),
(100,45,l),
(90,34,o),
(175,-46,o),
(185,-35,c)
);
},
{
closed = 1;
nodes = (
(317,380,o),
(413,460,o),
(421,580,cs),
(429,700,o),
(345,780,o),
(234,780,cs),
(125,780,o),
(29,700,o),
(21,580,cs),
(13,460,o),
(97,380,o),
(208,380,cs)
);
},
{
closed = 1;
nodes = (
(178,490,o),
(138,523,o),
(135,580,cs),
(131,637,o),
(166,670,o),
(215,670,cs),
(264,670,o),
(304,637,o),
(307,580,cs),
(311,523,o),
(276,490,o),
(227,490,cs)
);
},
{
closed = 1;
nodes = (
(862,-20,o),
(958,60,o),
(966,180,cs),
(974,300,o),
(890,380,o),
(779,380,cs),
(670,380,o),
(574,300,o),
(566,180,cs),
(558,60,o),
(642,-20,o),
(753,-20,cs)
);
},
{
closed = 1;
nodes = (
(723,90,o),
(683,123,o),
(680,180,cs),
(676,237,o),
(711,270,o),
(760,270,cs),
(809,270,o),
(849,237,o),
(852,180,cs),
(856,123,o),
(821,90,o),
(772,90,cs)
);
},
{
closed = 1;
nodes = (
(1312,-20,o),
(1408,60,o),
(1416,180,cs),
(1424,300,o),
(1340,380,o),
(1229,380,cs),
(1120,380,o),
(1024,300,o),
(1016,180,cs),
(1008,60,o),
(1092,-20,o),
(1203,-20,cs)
);
},
{
closed = 1;
nodes = (
(1173,90,o),
(1133,123,o),
(1130,180,cs),
(1126,237,o),
(1161,270,o),
(1210,270,cs),
(1259,270,o),
(1299,237,o),
(1302,180,cs),
(1306,123,o),
(1271,90,o),
(1222,90,cs)
);
}
);
userData = {
com.schriftgestaltung.Glyphs.layer.corners = (
{
name = _segment.bulge;
origin = _corner00;
type = Segment;
},
{
name = _segment.bulge;
origin = _corner01;
type = Segment;
}
);
};
width = 1437;
}
);
unicode = 8240;
}
{
glyphname = euro;
layers = (
{
background = {
shapes = (
{
closed = 1;
nodes = (
(17,270,l),
(497,270,l),
(507,330,l),
(27,330,l)
);
},
{
closed = 1;
nodes = (
(37,410,l),
(517,410,l),
(527,470,l),
(47,470,l)
);
},
{
closed = 1;
nodes = (
(721,565,l),
(686,720,l,{
name = _corner00;
}),
(422,859,o),
(126,687,o),
(126,375,cs),
(126,7,o),
(479,-151,o),
(736,145,c),
(701,179,l),
(481,-51,o),
(233,92,o),
(233,404,cs),
(233,733,o),
(551,820,o),
(686,555,c)
);
}
);
};
layerId = m01;
shapes = (
{
closed = 1;
nodes = (
(517,410,l),
(532,408,o),
(542,468,o),
(527,470,c),
(238,470,l),
(277,744,o),
(561,801,o),
(686,555,c),
(690,541,o),
(725,551,o),
(721,565,c),
(686,720,l),
(450,844,o),
(189,720,o),
(136,470,c),
(47,470,l),
(32,472,o),
(22,412,o),
(37,410,c)
);
},
{
closed = 1;
nodes = (
(27,330,l),
(12,332,o),
(2,272,o),
(17,270,c),
(136,270,l),
(196,-20,o),
(525,-121,o),
(736,145,c),
(746,156,o),
(711,190,o),
(701,179,c),
(536,-15,o),
(310,56,o),
(250,270,c),
(497,270,l),
(512,268,o),
(522,328,o),
(507,330,c)
);
}
);
userData = {
com.schriftgestaltung.Glyphs.layer.corners = (
{
name = _segment.bulge;
origin = _corner00;
type = Segment;
},
{
name = _segment.bulge;
origin = _corner01;
type = Segment;
},
{
name = _segment.bulge;
origin = _corner02;
type = Segment;
},
{
name = _segment.bulge;
origin = _corner03;
type = Segment;
},
{
name = _segment.bulge;
origin = _corner04;
type = Segment;
},
{
name = _segment.bulge;
origin = _corner05;
type = Segment;
}
);
};
width = 778;
},
{
background = {
shapes = (
{
closed = 1;
nodes = (
(133,288,l),
(183,-16,o),
(521,-126,o),
(736,145,c),
(701,179,l),
(531,-20,o),
(298,60,o),
(245,288,c)
);
},
{
closed = 1;
nodes = (
(236,449,l),
(263,741,o),
(558,807,o),
(686,555,c),
(721,565,l),
(686,720,l),
(445,847,o),
(177,714,o),
(133,453,c)
);
},
{
closed = 1;
nodes = (
(497,270,l),
(507,330,l),
(27,330,l),
(17,270,l)
);
},
{
closed = 1;
nodes = (
(47,470,l),
(37,410,l),
(517,410,l),
(527,470,l)
);
}
);
};
layerId = m002;
shapes = (
{
closed = 1;
nodes = (
(517,420,l),
(532,418,o),
(542,488,o),
(527,490,c),
(296,490,l),
(325,715,o),
(495,799,o),
(665,540,c),
(670,526,o),
(730,546,o),
(725,560,c),
(690,730,l),
(446,839,o),
(201,733,o),
(143,490,c),
(47,490,l),
(32,492,o),
(22,422,o),
(37,420,c)
);
},
{
closed = 1;
nodes = (
(27,340,l),
(12,342,o),
(2,272,o),
(17,270,c),
(141,270,l),
(202,-20,o),
(559,-121,o),
(750,145,c),
(760,156,o),
(715,200,o),
(705,189,c),
(570,43,o),
(371,97,o),
(314,270,c),
(497,270,l),
(512,268,o),
(522,338,o),
(507,340,c)
);
}
);
userData = {
com.schriftgestaltung.Glyphs.layer.corners = (
{
name = _segment.bulge;
origin = _corner00;
type = Segment;
},
{
name = _segment.bulge;
origin = _corner01;
type = Segment;
},
{
name = _segment.bulge;
origin = _corner02;
type = Segment;
},
{
name = _segment.bulge;
origin = _corner03;
type = Segment;
},
{
name = _segment.bulge;
origin = _corner04;
type = Segment;
},
{
name = _segment.bulge;
origin = _corner05;
type = Segment;
}
);
};
width = 778;
}
);
unicode = 8364;
}
{
glyphname = caroncomb.alt;
layers = (
{
anchors = (
{
name = _topright;
pos = (30,780);
}
);
layerId = m01;
shapes = (
{
closed = 1;
nodes = (
(138,668,o),
(173,739,o),
(178,758,c),
(170,779,o),
(100,799,o),
(82,784,c),
(77,766,o),
(62,688,o),
(50,581,c),
(47,569,o),
(83,559,o),
(88,568,c)
);
}
);
width = 228;
},
{
anchors = (
{
name = _topright;
pos = (30,800);
}
);
layerId = m002;
shapes = (
{
closed = 1;
nodes = (
(158,661,o),
(193,732,o),
(198,751,c),
(190,772,o),
(100,799,o),
(82,784,c),
(77,766,o),
(62,688,o),
(50,581,c),
(47,569,o),
(103,552,o),
(108,561,c)
);
}
);
width = 248;
}
);
}
{
glyphname = f.lig_comp;
layers = (
{
anchors = (
{
name = bottom;
pos = (179,0);
},
{
name = top;
pos = (179,800);
}
);
background = {
shapes = (
{
closed = 1;
nodes = (
(122,0,l,{
name = _corner00;
}),
(207,0,l,{
name = _corner01;
}),
(207,559,ls),
(207,695,o),
(271,755,o),
(462,700,c),
(518,793,l),
(400,837,o),
(122,786,o),
(122,517,cs)
);
},
{
closed = 1;
nodes = (
(41,430,l),
(361,430,l),
(361,490,l),
(131,490,l),
(41,480,l)
);
}
);
};
layerId = m01;
shapes = (
{
closed = 1;
nodes = (
(122,125,l),
(122,60,o),
(116,63,o),
(53,28,c),
(46,24,o),
(50,-1,o),
(59,-1,c),
(115,-1,o),
(129,0,o),
(147,0,c),
(172,0,l),
(197,0,o),
(217,-1,o),
(297,-1,c),
(310,-1,o),
(316,24,o),
(305,28,c),
(216,63,o),
(207,60,o),
(207,125,c),
(207,559,ls),
(207,695,o),
(291,805,o),
(482,680,c),
(518,763,l),
(400,877,o),
(122,786,o),
(122,517,cs)
);
},
{
closed = 1;
nodes = (
(26,480,o),
(26,430,o),
(41,430,c),
(361,430,l),
(376,430,o),
(376,490,o),
(361,490,c),
(131,490,l),
(41,480,l)
);
}
);
userData = {
com.schriftgestaltung.Glyphs.layer.corners = (
{
name = _corner.serif;
origin = _corner00;
scale = "{0.7, 1}";
type = Corner;
},
{
name = _corner.serif;
options = 1;
origin = _corner01;
scale = "{1, -1}";
type = Corner;
},
{
name = _segment.bulge;
origin = _corner02;
type = Segment;
},
{
name = _segment.bulge;
origin = _corner03;
type = Segment;
}
);
};
width = 358;
},
{
anchors = (
{
name = bottom;
pos = (179,0);
},
{
name = top;
pos = (179,800);
}
);
background = {
shapes = (
{
closed = 1;
nodes = (
(122,0,l,{
name = _corner00;
}),
(257,0,l,{
name = _corner01;
}),
(257,559,ls),
(257,695,o),
(321,695,o),
(478,642,c),
(518,783,l),
(420,837,o),
(122,786,o),
(122,517,cs)
);
},
{
closed = 1;
nodes = (
(41,410,l),
(371,410,l),
(371,500,l),
(131,490,l),
(41,480,l)
);
}
);
};
layerId = m002;
shapes = (
{
closed = 1;
nodes = (
(122,145,l),
(122,80,o),
(112,78,o),
(57,44,c),
(49,39,o),
(57,-1,o),
(66,-1,c),
(115,-1,o),
(129,0,o),
(147,0,c),
(222,0,l),
(247,0,o),
(267,-1,o),
(337,-1,c),
(350,-1,o),
(361,43,o),
(350,48,c),
(271,86,o),
(257,88,o),
(257,160,c),
(257,559,ls),
(257,695,o),
(321,745,o),
(478,612,c),
(518,753,l),
(420,867,o),
(122,786,o),
(122,517,cs)
);
},
{
closed = 1;
nodes = (
(26,480,o),
(26,410,o),
(41,410,c),
(371,410,l),
(386,410,o),
(386,500,o),
(371,500,c),
(131,490,l),
(41,480,l)
);
}
);
userData = {
com.schriftgestaltung.Glyphs.layer.corners = (
{
name = _corner.serif;
origin = _corner00;
scale = "{0.7, 1}";
type = Corner;
},
{
name = _corner.serif;
options = 1;
origin = _corner01;
scale = "{1, -1.1}";
type = Corner;
},
{
name = _segment.bulge;
origin = _corner02;
type = Segment;
},
{
name = _segment.bulge;
origin = _corner03;
type = Segment;
}
);
};
width = 358;
}
);
}
{
glyphname = f_i.liga;
layers = (
{
anchors = (
{
name = bottom_1;
pos = (169,0);
},
{
name = bottom_2;
pos = (507,0);
},
{
name = caret_1;
pos = (338,0);
},
{
name = top_1;
pos = (169,800);
},
{
name = top_2;
pos = (507,800);
}
);
background = {
shapes = (
{
closed = 1;
nodes = (
(122,0,l,{
name = _corner00;
}),
(207,0,l,{
name = _corner01;
}),
(207,559,ls),
(207,695,o),
(261,765,o),
(418,682,cs),
(449,666,o),
(485,768,o),
(458,783,cs),
(360,837,o),
(122,786,o),
(122,517,cs)
);
},
{
closed = 1;
nodes = (
(41,430,l),
(341,430,l),
(341,490,l),
(131,490,l),
(41,480,l)
);
},
{
closed = 1;
nodes = (
(556,640,o),
(578,676,o),
(578,700,c),
(563,734,o),
(526,755,o),
(503,755,c),
(470,740,o),
(448,704,o),
(448,680,c),
(463,646,o),
(500,625,o),
(523,625,c)
);
},
{
closed = 1;
nodes = (
(563,0,l,{
name = _corner02;
}),
(563,515,l,{
name = _corner03;
}),
(533,503,o),
(509,492,o),
(478,480,c,{
name = _corner04;
}),
(478,0,l,{
name = _corner05;
})
);
}
);
};
layerId = m01;
shapes = (
{
closed = 1;
nodes = (
(434,718,o),
(503,635,o),
(523,635,cs),
(543,635,o),
(585,695,o),
(573,710,cs),
(551,738,o),
(463,800,o),
(386,800,cs),
(296,800,o),
(122,716,o),
(122,507,cs),
(122,125,l),
(122,60,o),
(116,63,o),
(53,28,c),
(46,24,o),
(50,-1,o),
(59,-1,c),
(115,-1,o),
(129,0,o),
(147,0,c),
(172,0,l),
(197,0,o),
(217,-1,o),
(297,-1,c),
(310,-1,o),
(316,24,o),
(305,28,c),
(216,63,o),
(207,60,o),
(207,125,c),
(207,559,ls),
(207,655,o),
(244,718,o),
(324,718,cs)
);
},
{
closed = 1;
nodes = (
(26,480,o),
(26,430,o),
(41,430,c),
(531,430,l),
(546,430,o),
(546,490,o),
(531,490,c),
(131,490,l),
(41,480,l)
);
},
{
closed = 1;
nodes = (
(535,0,l),
(555,0,o),
(571,-1,o),
(635,-1,c),
(645,-1,o),
(650,24,o),
(641,28,c),
(570,63,o),
(563,60,o),
(563,125,c),
(563,504,l),
(554,511,l),
(528,501,o),
(506,491,o),
(478,480,c),
(478,125,l),
(478,60,o),
(472,63,o),
(409,28,c),
(402,24,o),
(406,-1,o),
(415,-1,c),
(471,-1,o),
(485,0,o),
(503,0,c)
);
}
);
userData = {
com.schriftgestaltung.Glyphs.layer.corners = (
{
name = _segment.bulge;
origin = _corner00;
type = Segment;
},
{
name = _segment.bulge;
origin = _corner01;
type = Segment;
},
{
name = _corner.serif;
options = 1;
origin = _corner02;
scale = "{0.8, -1}";
type = Corner;
},
{
name = _corner.mitre;
origin = _corner03;
type = Corner;
},
{
name = _corner.serif;
origin = _corner04;
scale = "{0.7, 1}";
type = Corner;
},
{
name = _corner.serif;
origin = _corner05;
scale = "{0.7, 1}";
type = Corner;
},
{
name = _corner.serif;
options = 1;
origin = _corner06;
scale = "{1, -1}";
type = Corner;
}
);
};
width = 676;
},
{
anchors = (
{
name = bottom_1;
pos = (180,0);
},
{
name = bottom_2;
pos = (539,0);
},
{
name = caret_1;
pos = (359.5,0);
},
{
name = top_1;
pos = (180,800);
},
{
name = top_2;
pos = (539,800);
}
);
background = {
shapes = (
{
closed = 1;
nodes = (
(122,0,l,{
name = _corner12;
}),
(257,0,l,{
name = _corner13;
}),
(257,559,ls),
(257,695,o),
(291,715,o),
(448,632,cs),
(479,616,o),
(515,768,o),
(488,783,cs),
(390,837,o),
(122,786,o),
(122,517,cs)
);
},
{
closed = 1;
nodes = (
(41,410,l),
(371,410,l),
(371,500,l),
(131,490,l),
(41,480,l)
);
},
{
closed = 1;
nodes = (
(573,635,o),
(601,682,o),
(601,713,c),
(581,758,o),
(533,785,o),
(503,785,c),
(459,765,o),
(431,718,o),
(431,687,c),
(451,642,o),
(499,615,o),
(529,615,c)
);
},
{
closed = 1;
nodes = (
(591,0,l,{
name = _corner14;
}),
(591,515,l,{
name = _corner15;
}),
(561,503,o),
(497,482,o),
(466,470,c,{
name = _corner16;
}),
(466,0,l,{
name = _corner17;
})
);
}
);
};
layerId = m002;
shapes = (
{
closed = 1;
nodes = (
(364,687,o),
(423,665,o),
(512,618,cs),
(558,594,o),
(619,719,o),
(586,745,cs),
(535,785,o),
(472,805,o),
(409,805,cs),
(266,805,o),
(122,704,o),
(122,517,cs),
(122,145,l),
(122,80,o),
(112,78,o),
(57,44,c),
(49,39,o),
(57,-1,o),
(66,-1,c),
(115,-1,o),
(129,0,o),
(147,0,c),
(222,0,l),
(247,0,o),
(267,-1,o),
(337,-1,c),
(350,-1,o),
(361,43,o),
(350,48,c),
(271,86,o),
(257,88,o),
(257,160,c),
(257,559,ls),
(257,640,o),
(269,687,o),
(326,687,cs)
);
},
{
closed = 1;
nodes = (
(26,480,o),
(26,410,o),
(41,410,c),
(591,410,l),
(606,410,o),
(606,500,o),
(591,500,c),
(131,490,l),
(41,480,l)
);
},
{
closed = 1;
nodes = (
(583,0,l),
(603,0,o),
(619,-1,o),
(675,-1,c),
(685,-1,o),
(694,39,o),
(685,44,c),
(622,78,o),
(611,80,o),
(611,145,c),
(611,494,l),
(592,508,l),
(560,496,o),
(512,480,o),
(486,470,c),
(486,145,l),
(486,80,o),
(476,78,o),
(421,44,c),
(413,39,o),
(421,-1,o),
(430,-1,c),
(479,-1,o),
(493,0,o),
(511,0,c)
);
}
);
userData = {
com.schriftgestaltung.Glyphs.layer.corners = (
{
name = _corner.serif;
origin = _corner00;
scale = "{0.7, 1}";
type = Corner;
},
{
name = _corner.serif;
options = 1;
origin = _corner01;
scale = "{1, -1.1}";
type = Corner;
},
{
name = _segment.bulge;
origin = _corner02;
type = Segment;
},
{
name = _segment.bulge;
origin = _corner03;
type = Segment;
},
{
name = _corner.serif;
options = 1;
origin = _corner04;
scale = "{0.8, -1}";
type = Corner;
},
{
name = _corner.mitre;
origin = _corner05;
type = Corner;
},
{
name = _corner.serif;
origin = _corner06;
scale = "{0.7, 1}";
type = Corner;
}
);
};
width = 719;
}
);
}
{
glyphname = five.lf;
layers = (
{
background = {
shapes = (
{
closed = 1;
nodes = (
(305,-47,o),
(462,105,o),
(462,259,cs),
(462,361,o),
(399,506,o),
(182,509,c),
(216,663,l),
(454,663,l,{
name = _corner12;
}),
(492,783,l),
(457,807,l),
(432,777,o),
(430,759,o),
(348,759,cs),
(178,759,l),
(100,415,l,{
name = _corner13;
}),
(282,429,o),
(366,348,o),
(366,221,cs),
(366,113,o),
(247,0,o),
(90,104,cs),
(55,127,o),
(29,2,o),
(72,-6,cs)
);
}
);
};
layerId = m01;
shapes = (
{
closed = 1;
nodes = (
(305,-47,o),
(462,105,o),
(462,259,cs),
(462,361,o),
(399,506,o),
(182,509,c),
(211,663,l),
(444,663,l),
(457,673,l),
(492,783,l),
(500,795,o),
(465,819,o),
(457,807,c),
(432,777,o),
(430,759,o),
(348,759,cs),
(178,759,l),
(102,425,l),
(110,416,l),
(285,426,o),
(366,346,o),
(366,221,cs),
(366,113,o),
(247,0,o),
(90,104,cs),
(55,127,o),
(29,2,o),
(72,-6,cs)
);
}
);
userData = {
com.schriftgestaltung.Glyphs.layer.corners = (
{
name = _corner.mitre;
options = 1;
origin = _corner00;
scale = "{-1, 1}";
type = Corner;
},
{
name = _segment.bulge;
origin = _corner01;
type = Segment;
},
{
name = _corner.mitre;
origin = _corner02;
type = Corner;
}
);
};
width = 543;
},
{
background = {
shapes = (
{
closed = 1;
nodes = (
(301,375,o),
(289,54,o),
(22,74,cs),
(4,75,o),
(3,5,o),
(17,4,cs),
(413,-31,o),
(522,454,o),
(136,519,c),
(150,613,l),
(358,613,l,{
name = _corner06;
}),
(396,783,l),
(361,807,l),
(336,777,o),
(334,759,o),
(252,759,cs),
(112,759,l),
(34,395,l,{
name = _corner07;
})
);
}
);
};
layerId = m002;
shapes = (
{
closed = 1;
nodes = (
(306,-47,o),
(473,105,o),
(473,259,cs),
(473,361,o),
(400,516,o),
(193,509,c),
(212,613,l),
(435,613,l),
(459,633,l),
(493,783,l),
(501,795,o),
(466,819,o),
(458,807,c),
(433,777,o),
(431,759,o),
(349,759,cs),
(159,759,l),
(95,386,l),
(111,368,l),
(269,392,o),
(337,304,o),
(337,221,cs),
(337,113,o),
(248,50,o),
(91,144,cs),
(55,166,o),
(30,2,o),
(73,-6,cs)
);
}
);
userData = {
com.schriftgestaltung.Glyphs.layer.corners = (
{
name = _corner.mitre;
options = 1;
origin = _corner00;
scale = "{-1, 1}";
type = Corner;
},
{
name = _segment.bulge;
origin = _corner01;
type = Segment;
},
{
name = _corner.mitre;
origin = _corner02;
type = Corner;
}
);
};
width = 544;
}
);
}
{
glyphname = nine.osf;
layers = (
{
background = {
shapes = (
{
closed = 1;
nodes = (
(163,-266,l),
(361,-144,o),
(515,70,o),
(515,244,cs),
(515,395,o),
(416,506,o),
(280,506,cs),
(133,506,o),
(30,398,o),
(30,267,cs),
(30,132,o),
(131,53,o),
(243,53,cs),
(295,53,o),
(350,70,o),
(398,107,c),
(404,170,l),
(377,131,o),
(328,117,o),
(291,117,cs),
(209,117,o),
(140,182,o),
(140,289,cs),
(140,359,o),
(178,447,o),
(261,447,cs),
(358,447,o),
(400,364,o),
(400,241,cs),
(400,64,o),
(296,-111,o),
(132,-232,c)
);
}
);
};
layerId = m01;
shapes = (
{
closed = 1;
nodes = (
(140,-237,o),
(168,-275,o),
(180,-266,c),
(408,-137,o),
(530,85,o),
(530,230,cs),
(530,373,o),
(445,506,o),
(287,506,cs),
(155,506,o),
(49,416,o),
(49,280,cs),
(49,86,o),
(274,-13,o),
(424,127,c),
(439,126,o),
(442,179,o),
(427,180,c),
(307,58,o),
(147,157,o),
(147,302,cs),
(147,502,o),
(430,520,o),
(430,249,cs),
(430,102,o),
(337,-94,o),
(152,-228,c)
);
}
);
userData = {
com.schriftgestaltung.Glyphs.layer.corners = (
{
name = _segment.bulge;
origin = _corner00;
type = Segment;
},
{
name = _segment.bulge;
origin = _corner01;
type = Segment;
}
);
};
width = 590;
},
{
layerId = m002;
shapes = (
{
closed = 1;
nodes = (
(87,-215,o),
(121,-266,o),
(133,-258,c),
(400,-127,o),
(537,85,o),
(537,244,cs),
(537,395,o),
(438,510,o),
(306,510,cs),
(126,510,o),
(44,390,o),
(44,271,cs),
(44,129,o),
(162,-12,o),
(373,56,c),
(388,54,o),
(397,117,o),
(382,119,c),
(240,86,o),
(176,190,o),
(176,287,cs),
(176,480,o),
(398,497,o),
(398,247,cs),
(398,88,o),
(296,-83,o),
(99,-207,c)
);
}
);
userData = {
com.schriftgestaltung.Glyphs.layer.corners = (
{
name = _segment.bulge;
origin = _corner00;
type = Segment;
},
{
name = _segment.bulge;
origin = _corner01;
type = Segment;
}
);
};
width = 592;
}
);
}
{
glyphname = one.osf;
layers = (
{
layerId = m01;
shapes = (
{
closed = 1;
nodes = (
(154,138,l),
(154,66,o),
(145,69,o),
(56,31,c),
(45,26,o),
(51,-1,o),
(64,-1,c),
(144,-1,o),
(164,0,o),
(189,0,c),
(214,0,l),
(239,0,o),
(259,-1,o),
(339,-1,c),
(352,-1,o),
(358,26,o),
(347,31,c),
(258,69,o),
(249,66,o),
(249,138,c),
(249,363,l),
(249,434,o),
(258,431,o),
(347,469,c),
(358,474,o),
(352,501,o),
(339,501,c),
(259,501,o),
(239,500,o),
(214,500,c),
(189,500,l),
(164,500,o),
(144,501,o),
(64,501,c),
(51,501,o),
(45,474,o),
(56,469,c),
(145,431,o),
(154,434,o),
(154,363,c)
);
}
);
userData = {
com.schriftgestaltung.Glyphs.layer.corners = (
{
name = _corner.serif;
origin = _corner00;
scale = "{1, 1.1}";
type = Corner;
},
{
name = _corner.serif;
options = 1;
origin = _corner01;
scale = "{1, -1.1}";
type = Corner;
},
{
name = _corner.serif;
origin = _corner02;
scale = "{1, 1.1}";
type = Corner;
},
{
name = _corner.serif;
options = 1;
origin = _corner03;
scale = "{1, -1.1}";
type = Corner;
}
);
};
width = 403;
},
{
layerId = m002;
shapes = (
{
closed = 1;
nodes = (
(124,160,l),
(124,88,o),
(110,86,o),
(31,48,c),
(20,43,o),
(31,-1,o),
(44,-1,c),
(114,-1,o),
(134,0,o),
(159,0,c),
(239,0,l),
(264,0,o),
(284,-1,o),
(354,-1,c),
(367,-1,o),
(378,43,o),
(367,48,c),
(288,86,o),
(274,88,o),
(274,160,c),
(274,341,l),
(274,412,o),
(288,414,o),
(367,452,c),
(378,457,o),
(367,501,o),
(354,501,c),
(284,501,o),
(264,500,o),
(239,500,c),
(159,500,l),
(134,500,o),
(114,501,o),
(44,501,c),
(31,501,o),
(20,457,o),
(31,452,c),
(110,414,o),
(124,412,o),
(124,341,c)
);
}
);
userData = {
com.schriftgestaltung.Glyphs.layer.corners = (
{
name = _corner.serif;
origin = _corner00;
scale = "{1, 1.1}";
type = Corner;
},
{
name = _corner.serif;
options = 1;
origin = _corner01;
scale = "{1, -1.1}";
type = Corner;
},
{
name = _corner.serif;
origin = _corner02;
scale = "{1, 1.1}";
type = Corner;
},
{
name = _corner.serif;
options = 1;
origin = _corner03;
scale = "{1, -1.1}";
type = Corner;
}
);
};
width = 398;
}
);
}
{
glyphname = three.osf;
layers = (
{
background = {
shapes = (
{
closed = 1;
nodes = (
(415,136,o),
(388,-294,o),
(63,-146,cs),
(23,-128,o),
(2,-247,o),
(45,-254,cs),
(403,-313,o),
(559,67,o),
(287,161,c),
(460,282,o),
(381,510,o),
(209,510,cs),
(146,510,o),
(83,477,o),
(40,416,c),
(67,381,l),
(171,462,o),
(287,417,o),
(287,305,cs),
(287,227,o),
(214,171,o),
(123,145,c),
(134,105,l)
);
}
);
};
layerId = m01;
shapes = (
{
closed = 1;
nodes = (
(278,-276,o),
(425,-111,o),
(425,23,cs),
(425,95,o),
(383,157,o),
(288,179,c),
(344,214,o),
(387,260,o),
(387,339,cs),
(387,432,o),
(307,510,o),
(209,510,cs),
(146,510,o),
(77,477,o),
(22,401,c),
(12,390,o),
(43,360,o),
(53,371,c),
(90,404,o),
(127,427,o),
(160,427,cs),
(249,427,o),
(289,358,o),
(289,294,cs),
(289,235,o),
(236,171,o),
(123,145,c),
(108,141,o),
(119,97,o),
(134,101,c),
(263,131,o),
(327,56,o),
(327,-23,cs),
(327,-97,o),
(272,-173,o),
(162,-173,cs),
(132,-173,o),
(100,-168,o),
(63,-156,cs),
(23,-142,o),
(2,-264,o),
(45,-266,cs)
);
}
);
userData = {
com.schriftgestaltung.Glyphs.layer.corners = (
{
name = _segment.bulge;
origin = _corner00;
type = Segment;
},
{
name = _segment.bulge;
origin = _corner01;
type = Segment;
}
);
};
width = 485;
},
{
background = {
shapes = (
{
closed = 1;
nodes = (
(243,131,o),
(307,56,o),
(307,-23,cs),
(307,-97,o),
(252,-173,o),
(142,-173,cs),
(112,-173,o),
(80,-168,o),
(43,-156,cs),
(3,-142,o),
(-18,-264,o),
(25,-266,cs),
(258,-276,o),
(405,-111,o),
(405,23,cs),
(405,95,o),
(363,157,o),
(268,179,c),
(324,214,o),
(367,260,o),
(367,339,cs),
(367,432,o),
(287,510,o),
(189,510,cs),
(126,510,o),
(57,477,o),
(2,401,c),
(33,371,l,{
name = _corner00;
}),
(70,404,o),
(107,417,o),
(140,417,cs),
(209,417,o),
(259,358,o),
(259,294,cs),
(259,235,o),
(216,171,o),
(103,145,c),
(114,101,l,{
name = _corner01;
})
);
}
);
};
layerId = m002;
shapes = (
{
closed = 1;
nodes = (
(79,-323,o),
(411,-218,o),
(411,-12,cs),
(411,75,o),
(358,148,o),
(268,173,c),
(334,207,o),
(387,261,o),
(387,349,cs),
(387,442,o),
(307,510,o),
(209,510,cs),
(116,510,o),
(48,454,o),
(2,391,c),
(-9,380,o),
(42,330,o),
(53,341,c),
(82,367,o),
(111,378,o),
(138,378,cs),
(194,378,o),
(238,329,o),
(238,277,cs),
(238,232,o),
(206,185,o),
(123,165,c),
(108,163,o),
(119,87,o),
(134,89,c),
(223,91,o),
(276,15,o),
(276,-53,cs),
(276,-105,o),
(245,-152,o),
(174,-152,cs),
(147,-152,o),
(113,-145,o),
(73,-128,cs),
(41,-114,o),
(-2,-218,o),
(14,-239,cs)
);
}
);
userData = {
com.schriftgestaltung.Glyphs.layer.corners = (
{
name = _segment.bulge;
origin = _corner00;
type = Segment;
},
{
name = _segment.bulge;
origin = _corner01;
type = Segment;
}
);
};
width = 454;
}
);
}
{
glyphname = zero.osf;
layers = (
{
layerId = m01;
shapes = (
{
closed = 1;
nodes = (
(437,-10,o),
(560,96,o),
(571,250,cs),
(582,404,o),
(473,510,o),
(329,510,cs),
(185,510,o),
(62,404,o),
(51,250,cs),
(40,96,o),
(149,-10,o),
(293,-10,cs)
);
},
{
closed = 1;
nodes = (
(224,70,o),
(149,140,o),
(141,250,cs),
(133,360,o),
(188,430,o),
(298,430,cs),
(398,430,o),
(473,360,o),
(481,250,cs),
(489,140,o),
(434,70,o),
(324,70,cs)
);
}
);
width = 622;
},
{
layerId = m002;
shapes = (
{
closed = 1;
nodes = (
(437,-10,o),
(560,96,o),
(571,250,cs),
(582,404,o),
(473,510,o),
(329,510,cs),
(185,510,o),
(62,404,o),
(51,250,cs),
(40,96,o),
(149,-10,o),
(293,-10,cs)
);
},
{
closed = 1;
nodes = (
(243,110,o),
(185,164,o),
(179,250,cs),
(173,336,o),
(215,390,o),
(301,390,cs),
(379,390,o),
(437,336,o),
(443,250,cs),
(449,164,o),
(407,110,o),
(321,110,cs)
);
}
);
width = 622;
}
);
}
